<?xml version="1.0" encoding="UTF-8" standalone="no"?>
<!-- Created with Inkscape (http://www.inkscape.org/) -->

<svg
   width="333.62158mm"
   height="328.99997mm"
   viewBox="0 0 333.62158 328.99997"
   version="1.1"
   id="svg1"
   xml:space="preserve"
   inkscape:version="1.3.2 (091e20ef0f, 2023-11-25, custom)"
   sodipodi:docname="contact-media.svg"
   xmlns:inkscape="http://www.inkscape.org/namespaces/inkscape"
   xmlns:sodipodi="http://sodipodi.sourceforge.net/DTD/sodipodi-0.dtd"
   xmlns="http://www.w3.org/2000/svg"
   xmlns:svg="http://www.w3.org/2000/svg"><sodipodi:namedview
     id="namedview1"
     pagecolor="#ffffff"
     bordercolor="#000000"
     borderopacity="0.25"
     inkscape:showpageshadow="2"
     inkscape:pageopacity="0.0"
     inkscape:pagecheckerboard="0"
     inkscape:deskcolor="#d1d1d1"
     inkscape:document-units="mm"
     inkscape:zoom="0.15748002"
     inkscape:cx="679.45129"
     inkscape:cy="882.65167"
     inkscape:window-width="1322"
     inkscape:window-height="740"
     inkscape:window-x="0"
     inkscape:window-y="0"
     inkscape:window-maximized="1"
     inkscape:current-layer="layer1" /><defs
     id="defs1" /><g
     inkscape:label="Layer 1"
     inkscape:groupmode="layer"
     id="layer1"
     transform="translate(-0.84002544,-3.4197238)"><path
       style="fill:#25d366;fill-opacity:1;stroke-width:0.264583"
       d="M 1.5435766,330.87419 334.34525,3.7843536 1.319496,4.6511674 Z"
       id="path2" /><path
       style="fill:#24a1de;fill-opacity:1;stroke-width:0.264583"
       d="M 0.72898401,327.30929 332.73113,326.83293 333.35703,0.96188912 Z"
       id="path3"
       transform="translate(0.84002543,3.4197238)" /></g><g
     inkscape:groupmode="layer"
     id="layer2"
     inkscape:label="Layer 2"><g
       style="fill:#000000"
       id="g2"
       transform="matrix(8.8194444,0,0,8.8194444,129.41443,132.72528)"><path
         fill-rule="evenodd"
         clip-rule="evenodd"
         d="M 23.1117,4.49449 C 23.4296,2.94472 21.9074,1.65683 20.4317,2.227 L 2.3425,9.21601 C 0.694517,9.85273 0.621087,12.1572 2.22518,12.8975 l 3.93932,1.8182 1.87399,6.5589 c 0.09734,0.3407 0.36769,0.6045 0.71068,0.6934 0.34299,0.0888 0.70741,-0.0104 0.95795,-0.261 l 2.88668,-2.8867 4.0437,3.0328 c 1.1738,0.8803 2.8644,0.2391 3.1592,-1.1982 z M 3.0633,11.0816 21.1525,4.0926 17.8375,20.2531 13.1,16.6999 c -0.3981,-0.2986 -0.9552,-0.259 -1.3071,0.0929 l -1.2364,1.2364 0.3715,-2.0431 7.2791,-7.27907 C 18.5614,8.35278 18.5988,7.79106 18.2947,7.39293 17.9906,6.99479 17.4389,6.88312 17.0039,7.13168 L 6.95124,12.876 Z m 5.11365,3.3975 0.60638,2.1224 0.23281,-1.2805 C 9.05253,15.1209 9.14908,14.9366 9.29291,14.7928 L 11.5128,12.573 Z"
         fill="#0f0f0f"
         id="path1"
         style="fill:#000000" /></g><g
       style="fill:#000000"
       id="g1"
       transform="matrix(0.68722944,0,0,0.68722944,-1.5956e-4,0)"><g
         id="XMLID_468_">
	<path
   id="XMLID_469_"
   d="m 227.904,176.981 c -0.6,-0.288 -23.054,-11.345 -27.044,-12.781 -1.629,-0.585 -3.374,-1.156 -5.23,-1.156 -3.032,0 -5.579,1.511 -7.563,4.479 -2.243,3.334 -9.033,11.271 -11.131,13.642 -0.274,0.313 -0.648,0.687 -0.872,0.687 -0.201,0 -3.676,-1.431 -4.728,-1.888 -24.087,-10.463 -42.37,-35.624 -44.877,-39.867 -0.358,-0.61 -0.373,-0.887 -0.376,-0.887 0.088,-0.323 0.898,-1.135 1.316,-1.554 1.223,-1.21 2.548,-2.805 3.83,-4.348 0.607,-0.731 1.215,-1.463 1.812,-2.153 1.86,-2.164 2.688,-3.844 3.648,-5.79 l 0.503,-1.011 c 2.344,-4.657 0.342,-8.587 -0.305,-9.856 -0.531,-1.062 -10.012,-23.944 -11.02,-26.348 -2.424,-5.801 -5.627,-8.502 -10.078,-8.502 -0.413,0 0,0 -1.732,0.073 -2.109,0.089 -13.594,1.601 -18.672,4.802 C 90,87.918 80.89,98.74 80.89,117.772 c 0,17.129 10.87,33.302 15.537,39.453 0.116,0.155 0.329,0.47 0.638,0.922 17.873,26.102 40.154,45.446 62.741,54.469 21.745,8.686 32.042,9.69 37.896,9.69 0.001,0 0.001,0 0.001,0 2.46,0 4.429,-0.193 6.166,-0.364 l 1.102,-0.105 c 7.512,-0.666 24.02,-9.22 27.775,-19.655 2.958,-8.219 3.738,-17.199 1.77,-20.458 -1.348,-2.216 -3.671,-3.331 -6.612,-4.743 z" />
	<path
   id="XMLID_470_"
   d="M 156.734,0 C 73.318,0 5.454,67.354 5.454,150.143 c 0,26.777 7.166,52.988 20.741,75.928 L 0.212,302.716 c -0.484,1.429 -0.124,3.009 0.933,4.085 C 1.908,307.58 2.943,308 4,308 c 0.405,0 0.813,-0.061 1.211,-0.188 l 79.92,-25.396 c 21.87,11.685 46.588,17.853 71.604,17.853 C 240.143,300.27 308,232.923 308,150.143 308,67.354 240.143,0 156.734,0 Z m 0,268.994 c -23.539,0 -46.338,-6.797 -65.936,-19.657 -0.659,-0.433 -1.424,-0.655 -2.194,-0.655 -0.407,0 -0.815,0.062 -1.212,0.188 L 47.357,261.596 60.281,223.467 C 60.699,222.233 60.49,220.872 59.72,219.82 44.796,199.428 36.907,175.335 36.907,150.143 36.907,84.6 90.661,31.276 156.733,31.276 c 66.064,0 119.812,53.324 119.812,118.867 10e-4,65.535 -53.746,118.851 -119.811,118.851 z" />
</g></g></g></svg>
