<?xml version="1.0" encoding="UTF-8" standalone="no"?>
<!-- Created with Inkscape (http://www.inkscape.org/) -->

<svg
   width="142.15652mm"
   height="122.64055mm"
   viewBox="0 0 142.15652 122.64055"
   version="1.1"
   id="svg1"
   xml:space="preserve"
   inkscape:version="1.3 (0e150ed6c4, 2023-07-21)"
   sodipodi:docname="albahaca_maticas_v2_negro.svg"
   xmlns:inkscape="http://www.inkscape.org/namespaces/inkscape"
   xmlns:sodipodi="http://sodipodi.sourceforge.net/DTD/sodipodi-0.dtd"
   xmlns="http://www.w3.org/2000/svg"
   xmlns:svg="http://www.w3.org/2000/svg"><sodipodi:namedview
     id="namedview1"
     pagecolor="#ffffff"
     bordercolor="#000000"
     borderopacity="0.25"
     inkscape:showpageshadow="2"
     inkscape:pageopacity="0.0"
     inkscape:pagecheckerboard="0"
     inkscape:deskcolor="#d1d1d1"
     inkscape:document-units="mm"
     inkscape:zoom="0.20226051"
     inkscape:cx="657.56781"
     inkscape:cy="474.63541"
     inkscape:window-width="1331"
     inkscape:window-height="740"
     inkscape:window-x="0"
     inkscape:window-y="0"
     inkscape:window-maximized="1"
     inkscape:current-layer="layer1" /><defs
     id="defs1" /><g
     inkscape:label="Layer 1"
     inkscape:groupmode="layer"
     id="layer1"
     transform="translate(-210.64336,-259.5935)"><g
       id="g1"
       transform="translate(179.00024,189.00022)"><path
         style="fill:#000000"
         d="m 146.33669,193.18071 c -2.03757,-0.19713 -3.29109,-1.30429 -3.8104,-3.3655 -0.10952,-0.43474 -0.12501,-0.64228 -0.12346,-1.65422 0.002,-1.07538 0.0125,-1.19677 0.15334,-1.71859 0.46342,-1.71689 1.57302,-2.84563 3.22862,-3.28432 0.55622,-0.14739 2.20351,-0.15075 2.73756,-0.006 0.83774,0.22771 1.56942,0.75609 1.97136,1.42359 0.42424,0.70455 0.59281,1.8168 0.46024,3.03678 -0.0364,0.33494 -0.0804,0.64609 -0.0978,0.69145 -0.0271,0.0708 -0.4223,0.0825 -2.78444,0.0825 h -2.75281 l 0.0265,0.26811 c 0.0849,0.86062 0.3993,1.68265 0.81675,2.13552 0.74444,0.80763 2.27396,0.88478 3.76181,0.18975 l 0.4702,-0.21965 0.24391,0.52058 c 0.27817,0.59372 0.28636,0.55953 -0.21578,0.90053 -0.75547,0.51303 -1.80405,0.89184 -2.76541,0.99904 -0.59107,0.0659 -0.63944,0.0659 -1.32012,6e-5 z m 1.8931,-6.54372 c 0.0388,-1.287 -0.24637,-2.10378 -0.82041,-2.3494 -0.25917,-0.11089 -0.78934,-0.0961 -1.06014,0.0295 -0.46809,0.21718 -0.7597,0.68042 -0.90093,1.43118 -0.0987,0.5249 -0.16713,1.36891 -0.11743,1.44933 0.0267,0.0433 0.47069,0.0576 1.45972,0.0471 l 1.4213,-0.0151 z m 7.78202,6.54241 c -0.6271,-0.0662 -1.06899,-0.18941 -1.61701,-0.4507 -0.98675,-0.47047 -1.73217,-1.47619 -2.06768,-2.78971 -0.17843,-0.69855 -0.24122,-1.88878 -0.13995,-2.65289 0.0848,-0.63978 0.33552,-1.40048 0.64183,-1.94733 0.3118,-0.55665 1.11334,-1.36702 1.62001,-1.63786 1.03175,-0.55152 1.45242,-0.64875 2.794,-0.64573 1.11644,0.003 1.26109,0.0233 2.48356,0.35678 l 0.39511,0.10778 -0.0135,1.23407 c -0.007,0.67874 -0.0285,1.39282 -0.0468,1.58685 l -0.0334,0.35278 h -0.8704 c -0.47872,0 -0.8704,-0.009 -0.8704,-0.0208 0,-0.0993 -0.47287,-2.05849 -0.51654,-2.1401 -0.0868,-0.16226 -0.39994,-0.26626 -0.80164,-0.26626 -0.87235,0 -1.4479,0.65007 -1.67414,1.89089 -0.034,0.18627 -0.0762,0.71967 -0.0939,1.18534 -0.0838,2.20885 0.45501,3.6239 1.53573,4.03309 0.29817,0.1129 0.40508,0.12398 0.92959,0.0964 0.6917,-0.0364 1.11125,-0.13924 1.68414,-0.41287 0.22778,-0.10879 0.42318,-0.18877 0.43422,-0.17772 0.011,0.011 0.12158,0.24083 0.24564,0.51064 l 0.22557,0.49056 -0.32112,0.2566 c -0.38117,0.30459 -1.31324,0.77183 -1.78868,0.89667 -0.36075,0.0947 -1.24288,0.20881 -1.524,0.19712 -0.0931,-0.004 -0.36777,-0.028 -0.61031,-0.0536 z m -24.36635,-0.72086 v -0.55667 l 0.29633,-0.0334 c 0.16298,-0.0184 0.67098,-0.0638 1.12889,-0.10107 l 0.83256,-0.0677 v -5.24159 -5.24159 l -0.71967,0.0312 c -0.39582,0.0171 -0.89867,0.0446 -1.11744,0.0611 l -0.39778,0.0299 -0.36308,1.94359 -0.36307,1.94359 h -0.80548 -0.80548 l -0.001,-0.18344 c -7.7e-4,-0.1009 0.0551,-1.282 0.12415,-2.62467 l 0.12553,-2.44122 h 5.80252 c 5.48835,0 5.80255,0.005 5.80312,0.0988 3.4e-4,0.0543 0.0507,1.21638 0.11197,2.58234 0.0612,1.36595 0.11177,2.5026 0.11228,2.52589 5.1e-4,0.0233 -0.34909,0.0423 -0.7769,0.0423 h -0.77782 l -0.32631,-1.67922 c -0.17947,-0.92357 -0.35187,-1.79826 -0.3831,-1.94375 l -0.0568,-0.26452 -0.29253,-0.0295 c -0.16089,-0.0162 -0.64177,-0.0421 -1.06863,-0.0575 l -0.77611,-0.0281 v 5.23744 5.23744 l 0.889,0.0678 c 0.48895,0.0373 1.03505,0.0829 1.21355,0.10137 l 0.32456,0.0335 v 0.55715 0.55715 h -3.86645 -3.86644 z m 29.80266,-0.004 v -0.56044 l 0.32456,-0.0627 c 0.1785,-0.0345 0.38183,-0.0749 0.45182,-0.0898 l 0.12727,-0.0271 -0.0144,-5.71373 -0.0144,-5.71372 -0.60678,-0.108 -0.60677,-0.108 v -0.52458 -0.52457 l 0.18344,-0.0302 c 0.35033,-0.0577 3.09639,-0.36999 3.25378,-0.36999 0.0872,0 0.266,0.078 0.39807,0.1737 l 0.23979,0.17371 -0.0327,2.3804 c -0.018,1.30923 -0.0485,2.51695 -0.0679,2.68383 l -0.0352,0.30341 0.36708,-0.26195 c 0.44428,-0.31703 1.29623,-0.72827 1.79263,-0.8653 0.28233,-0.0779 0.57272,-0.10014 1.29525,-0.099 0.83278,0.001 0.96505,0.0149 1.24995,0.12883 0.84407,0.3374 1.2754,0.97425 1.46001,2.15569 0.0409,0.26173 0.0775,1.54944 0.0959,3.37315 l 0.0297,2.94982 0.12035,0.0271 c 0.13729,0.0309 0.83245,0.13996 0.89645,0.14061 0.0233,2.3e-4 0.0423,0.25442 0.0423,0.56487 v 0.56444 h -2.45534 -2.45533 v -0.55996 -0.55996 l 0.15522,-0.0308 c 0.0854,-0.0169 0.25682,-0.0466 0.381,-0.0659 0.48101,-0.0747 0.43421,0.26979 0.40857,-3.00775 -0.0234,-2.9941 -0.0377,-3.19218 -0.26007,-3.60767 -0.36448,-0.68104 -1.7175,-0.63494 -2.70261,0.0921 l -0.23989,0.17705 v 3.1285 c 0,2.9313 0.006,3.13027 0.0988,3.15635 0.0543,0.0153 0.28293,0.0574 0.508,0.0936 l 0.40922,0.0657 v 0.55935 0.55934 h -2.39889 -2.39889 z m -55.53179,-1.42297 c -0.33245,-0.0776 -0.77496,-0.50246 -0.8295,-0.79648 -0.0628,-0.33872 0.0163,-0.60657 0.24736,-0.83768 0.19873,-0.19872 0.51281,-0.33254 0.78209,-0.33322 0.0965,-2.5e-4 0.13761,-0.0484 0.18116,-0.21198 0.031,-0.11642 0.32319,-1.20797 0.64935,-2.42566 l 0.59303,-2.21399 -0.96741,-1.46864 c -0.53207,-0.80775 -0.97808,-1.45796 -0.99113,-1.4449 -0.0131,0.0131 -0.22428,0.76854 -0.46938,1.67885 -0.28194,1.04714 -0.42312,1.66269 -0.38435,1.67575 0.11999,0.0404 0.45256,0.36557 0.53301,0.52116 0.045,0.087 0.0818,0.28266 0.0818,0.43483 0,0.35412 -0.16773,0.61518 -0.50846,0.79138 -0.20877,0.10797 -0.31522,0.12661 -0.60279,0.10556 -0.62633,-0.0458 -1.0382,-0.4242 -1.07777,-0.99009 -0.0185,-0.26414 4.8e-4,-0.35302 0.11014,-0.51659 0.16003,-0.23868 0.5584,-0.45155 0.84505,-0.45155 0.20472,0 0.21187,-0.007 0.29455,-0.29634 0.0466,-0.16298 0.59779,-2.21293 1.22487,-4.55545 0.7431,-2.77595 1.11793,-4.26652 1.07638,-4.28037 -0.0369,-0.0123 -0.0637,-0.15021 -0.0637,-0.3279 v -0.30665 l -1.42325,0.72058 -1.42326,0.72057 -0.63518,2.37067 c -0.34935,1.30386 -0.63599,2.39694 -0.63697,2.42905 -9.8e-4,0.0321 0.0754,0.10397 0.1697,0.15968 0.26873,0.15875 0.46185,0.49488 0.46567,0.81053 0.004,0.34756 -0.12938,0.59771 -0.42294,0.79198 -0.19575,0.12954 -0.2951,0.15498 -0.6052,0.15498 -0.30281,0 -0.4194,-0.0284 -0.63421,-0.15472 -0.91745,-0.53933 -0.6133,-1.8039 0.43385,-1.8039 0.23125,0 0.13995,0.26121 0.87395,-2.50049 0.31353,-1.17969 0.594,-2.22115 0.62327,-2.31436 0.048,-0.15272 0.20941,-0.24756 1.63364,-0.95956 l 1.58043,-0.79008 2.5e-4,-0.63393 c 2.4e-4,-0.61157 0.005,-0.63489 0.12725,-0.66129 0.0698,-0.0151 0.4953,-0.0802 0.94544,-0.14467 0.45015,-0.0645 0.8884,-0.13093 0.9739,-0.14758 l 0.15546,-0.0303 -0.0144,-6.63974 -0.0143,-6.63974 -1.016,-0.28954 c -0.5588,-0.15925 -1.08585,-0.30671 -1.17122,-0.32769 l -0.15522,-0.0382 v -1.31378 -1.31378 l 3.54188,-0.42916 3.54189,-0.42917 0.55034,0.36582 0.55033,0.36582 v 8.34461 8.3446 l 0.15522,0.0309 c 0.0854,0.017 0.51082,0.0826 0.94545,0.14577 0.43462,0.0632 0.84737,0.12793 0.91722,0.14395 0.12649,0.029 0.127,0.0336 0.127,1.15694 v 1.12782 l -0.94545,0.001 -0.94544,0.001 1.81442,1.805 1.81442,1.805 0.27402,-5e-4 c 0.15072,-2.7e-4 1.06095,-0.0514 2.02274,-0.11364 l 1.74871,-0.11314 1.83551,1.82852 1.83551,1.82851 0.19526,-0.1183 c 0.24063,-0.1458 0.68779,-0.15571 0.94329,-0.0209 0.31152,0.16435 0.4419,0.41043 0.4419,0.83404 0,0.31052 -0.0254,0.40937 -0.15571,0.60629 -0.2158,0.3261 -0.52712,0.51882 -0.8965,0.55496 -0.76556,0.0749 -1.22361,-0.62425 -0.91473,-1.39624 l 0.0933,-0.23315 -1.77251,-1.763 -1.77251,-1.763 -1.65555,0.10079 c -0.91055,0.0554 -1.70487,0.10864 -1.76516,0.11823 -0.0836,0.0133 0.182,0.30864 1.12037,1.24568 l 1.22999,1.22824 0.22473,-0.11716 c 0.29394,-0.15324 0.77542,-0.13109 1.0258,0.0472 0.38454,0.27382 0.47507,0.96007 0.18349,1.39091 -0.42986,0.63517 -1.36797,0.73359 -1.75893,0.18453 -0.17845,-0.2506 -0.20044,-0.73185 -0.0469,-1.02637 l 0.11746,-0.22531 -3.3462,-3.3448 -3.34619,-3.3448 h -0.29154 c -0.22956,0 -0.29738,0.021 -0.31902,0.0988 -0.0151,0.0543 -0.0593,0.72921 -0.0983,1.49974 l -0.0708,1.40095 1.76948,1.77015 1.76948,1.77015 0.21365,-0.10899 c 0.64004,-0.32653 1.40347,0.10293 1.40347,0.7895 0,1.0919 -1.47032,1.64522 -1.99312,0.75006 -0.14478,-0.24789 -0.14151,-0.66182 0.007,-0.94704 l 0.11582,-0.22174 -1.82519,-1.83444 -1.8252,-1.83445 0.0942,-1.54173 c 0.0518,-0.84795 0.0831,-1.5528 0.0696,-1.56633 -0.0433,-0.0433 -1.74796,-0.0263 -1.77289,0.0177 -0.0132,0.0233 -0.0112,0.83697 0.004,1.80819 l 0.0283,1.76586 1.48801,1.31036 1.488,1.31037 9e-5,2.5841 c 7e-5,2.41218 0.007,2.58606 0.0989,2.61352 0.32116,0.0956 0.59596,0.28709 0.72288,0.50366 0.40079,0.6839 -0.11444,1.43417 -0.98728,1.4377 -0.74214,0.003 -1.26429,-0.5769 -1.07889,-1.1982 0.0853,-0.28574 0.41275,-0.6188 0.68529,-0.69695 l 0.19233,-0.0551 0.0132,-2.50967 0.0132,-2.50968 -1.30523,-1.15711 c -0.71788,-0.63641 -1.32746,-1.1657 -1.35463,-1.1762 -0.0278,-0.0107 -0.0429,0.74108 -0.0345,1.71687 l 0.0149,1.73596 0.16934,0.0542 c 0.43597,0.1396 0.76144,0.53763 0.76178,0.93162 2.5e-4,0.28065 -0.0932,0.48521 -0.3193,0.69916 -0.21466,0.2031 -0.41544,0.2717 -0.79523,0.2717 -0.75444,0 -1.27462,-0.58001 -1.08569,-1.21057 0.0841,-0.28083 0.3825,-0.5707 0.67881,-0.65947 l 0.2234,-0.0669 v -3.77388 -3.77388 l -1.31233,0.0152 -1.31233,0.0152 -0.0147,2.32115 -0.0147,2.32116 0.15585,0.0313 c 0.72823,0.14633 1.00217,1.10382 0.45754,1.59922 -0.35965,0.32713 -0.9343,0.40297 -1.38827,0.18321 -0.66501,-0.32193 -0.73287,-1.20884 -0.12393,-1.61984 0.10697,-0.0722 0.26435,-0.14531 0.34972,-0.16247 l 0.15522,-0.0312 v -2.33743 -2.33743 l -0.55033,0.0162 -0.55033,0.0162 -0.68755,2.62467 c -0.37815,1.44356 -0.6893,2.66678 -0.69144,2.71826 -0.002,0.0515 0.4911,0.83971 1.0961,1.75162 l 1.09999,1.65803 -0.66873,2.48171 c -0.59163,2.19555 -0.65835,2.48822 -0.57861,2.53815 0.24548,0.15374 0.5093,0.47513 0.56753,0.69138 0.19687,0.73113 -0.50981,1.32924 -1.34131,1.13521 z M 84.64179,175.77599 c -0.48291,-0.0925 -0.729712,-0.22393 -0.902777,-0.48074 -0.198827,-0.29504 -0.24892,-0.53981 -0.281443,-1.37523 l -0.03033,-0.77897 -0.45834,0.44525 c -0.529666,0.51455 -1.114863,0.95718 -1.756562,1.32864 -1.072969,0.6211 -2.114081,0.88137 -3.534495,0.8836 -1.781477,0.003 -3.132383,-0.50398 -4.274323,-1.60348 -0.785845,-0.75663 -1.298682,-1.7008 -1.550465,-2.85451 -0.170355,-0.7806 -0.165866,-2.2111 0.0089,-2.85045 0.554813,-2.02914 2.203156,-3.40478 5.173448,-4.31753 1.502793,-0.46179 3.796643,-0.79069 5.514616,-0.79069 h 0.609606 v -0.67325 c 0,-1.04853 -0.125688,-1.79019 -0.391771,-2.31176 -0.295161,-0.57856 -0.992334,-1.00775 -1.887511,-1.16196 -0.883664,-0.15224 -2.398803,-0.10162 -3.506273,0.11713 -0.556523,0.10993 -2.240032,0.66215 -2.963333,0.97202 -0.294923,0.12634 -0.56839,0.23739 -0.607705,0.24677 -0.05963,0.0142 -0.835247,-1.51617 -1.172584,-2.31366 l -0.0786,-0.18581 0.435555,-0.28537 c 0.701035,-0.45931 2.335583,-1.24106 3.201333,-1.53109 2.073891,-0.69477 3.751306,-0.93118 5.870223,-0.82733 4.24798,0.20821 6.023491,1.77887 6.402706,5.664 0.03816,0.39097 0.06018,2.70936 0.06018,6.33589 v 5.71931 h 0.931334 0.931333 v 1.09328 1.09328 l -0.211667,0.0367 c -2.369781,0.41081 -4.63705,0.57722 -5.531107,0.40596 z m -3.361806,-3.33448 c 0.514986,-0.16467 1.098654,-0.48166 1.555136,-0.84458 l 0.324555,-0.25803 v -2.82987 -2.82987 l -0.666365,0.0377 c -2.521279,0.14249 -4.026409,0.95902 -4.591819,2.49106 -0.18401,0.49859 -0.182119,1.7191 0.0037,2.38383 0.36045,1.28949 1.213945,1.98416 2.443466,1.98877 0.37193,0.001 0.597748,-0.0323 0.931334,-0.13897 z m 68.938106,3.35033 c -0.16942,-0.0281 -0.44344,-0.11305 -0.60892,-0.18882 -0.26657,-0.12204 -0.31832,-0.175 -0.45379,-0.46444 -0.14052,-0.30024 -0.15448,-0.39412 -0.17237,-1.15926 -0.0107,-0.4579 -0.0412,-0.83255 -0.0679,-0.83255 -0.0266,0 -0.11579,0.0884 -0.19817,0.19637 -0.19723,0.25858 -0.96232,0.90257 -1.49286,1.25656 -0.90788,0.60576 -1.80132,0.95904 -2.84239,1.12394 -0.77323,0.12246 -2.18235,0.0788 -2.84706,-0.0881 -1.33416,-0.33514 -2.40232,-1.02438 -3.17337,-2.04763 -0.79104,-1.04979 -1.1309,-2.1736 -1.13197,-3.74311 -4.5e-4,-0.65363 0.0233,-0.88367 0.13719,-1.33085 0.23702,-0.93035 0.65043,-1.62446 1.3855,-2.32625 1.71717,-1.63943 4.90464,-2.64088 8.89544,-2.79482 l 1.016,-0.0392 -0.0157,-0.83578 c -0.0324,-1.72943 -0.37884,-2.53677 -1.27563,-2.97301 -0.56211,-0.27343 -0.93871,-0.34668 -1.95563,-0.38033 -1.82328,-0.0603 -3.40577,0.27428 -5.49861,1.16271 -0.3707,0.15737 -0.67831,0.28038 -0.68357,0.27338 -0.005,-0.007 -0.27153,-0.56906 -0.5917,-1.249 l -0.58213,-1.23626 0.15409,-0.13254 c 0.24129,-0.20755 1.15154,-0.72694 1.9108,-1.09031 2.31499,-1.1079 4.81174,-1.59782 7.46336,-1.46448 2.30547,0.11593 3.80254,0.62441 4.81278,1.63466 0.82062,0.82062 1.26341,1.86717 1.52405,3.60215 0.077,0.51258 0.0935,1.46899 0.11295,6.54114 l 0.0228,5.94078 h 0.89941 0.89941 v 1.0948 1.0948 l -0.49389,0.0893 c -1.89354,0.34236 -4.2715,0.5115 -5.14814,0.36617 z m -3.5885,-3.29607 c 0.58653,-0.15277 1.38891,-0.59686 1.86116,-1.03008 l 0.20199,-0.18529 -0.0146,-2.77804 -0.0146,-2.77804 -0.67734,0.0143 c -1.70974,0.0362 -2.9595,0.46571 -3.81593,1.31151 -0.68196,0.67348 -0.91128,1.26051 -0.90597,2.31915 0.005,1.0563 0.26991,1.86133 0.80385,2.44555 0.33588,0.3675 0.56848,0.52052 1.00193,0.65915 0.40088,0.1282 1.11277,0.13813 1.55959,0.0218 z m -20.12058,3.24133 c -0.55939,-0.0633 -1.44389,-0.25294 -2.00323,-0.42947 -3.10441,-0.97979 -5.12311,-3.81943 -5.55724,-7.81719 -0.0888,-0.8176 -0.0742,-2.69208 0.0271,-3.47067 0.39129,-3.00892 1.82166,-5.45632 4.06602,-6.95709 1.73906,-1.16289 3.62458,-1.69591 5.99915,-1.69591 1.50155,0 2.70756,0.18017 4.50167,0.67253 0.55543,0.15242 1.10512,0.29489 1.22153,0.31658 0.2569,0.0479 0.24584,-0.32285 0.0985,3.30067 -0.0612,1.50565 -0.11161,2.8201 -0.11196,2.921 l -6.4e-4,0.18344 h -1.77294 -1.77294 l -0.11282,-0.49389 c -0.062,-0.27164 -0.27299,-1.2031 -0.46876,-2.06991 -0.22498,-0.99612 -0.39821,-1.63995 -0.4708,-1.74977 -0.16921,-0.25601 -0.65251,-0.47436 -1.2168,-0.54974 -1.10769,-0.14798 -2.09995,0.30532 -2.79235,1.27563 -0.66729,0.93513 -0.99375,2.30062 -1.10467,4.62058 -0.20552,4.29856 0.76372,7.19795 2.7303,8.16748 0.66147,0.3261 1.14096,0.41424 2.04289,0.37553 1.3373,-0.0574 2.48338,-0.35168 3.68656,-0.94661 0.38225,-0.18902 0.70098,-0.33468 0.70828,-0.3237 0.007,0.011 0.21952,0.46999 0.47161,1.02004 l 0.45833,1.00008 -0.34817,0.32246 c -0.47217,0.43732 -1.2168,0.91777 -2.09794,1.35365 -1.07031,0.52946 -2.06843,0.8251 -3.30052,0.97763 -0.55397,0.0686 -2.26216,0.0666 -2.88015,-0.003 z m 37.05578,-0.0273 c -0.92085,-0.11455 -2.48469,-0.45612 -4.16278,-0.90923 l -1.397,-0.37721 v -2.33165 -2.33165 h 1.65433 1.65432 l 0.44511,1.41535 c 0.50247,1.5977 0.47819,1.55888 1.18513,1.89471 1.16485,0.55337 2.95887,0.62969 3.9319,0.16727 0.80281,-0.38153 1.23467,-1.03767 1.23908,-1.88258 0.004,-0.8203 -0.28997,-1.29758 -1.16575,-1.8909 -0.62935,-0.42637 -1.96091,-1.10388 -3.52545,-1.79378 -2.00258,-0.88305 -2.82559,-1.37538 -3.70568,-2.21675 -0.83105,-0.7945 -1.24226,-1.48733 -1.52699,-2.57283 -0.20918,-0.79743 -0.24825,-2.1968 -0.0809,-2.89719 0.2152,-0.90062 0.59289,-1.57515 1.29401,-2.311 1.48543,-1.55902 3.96612,-2.335 7.12399,-2.22846 1.70339,0.0575 2.47271,0.17397 4.78352,0.72439 l 1.25574,0.29911 1.5e-4,2.38477 1.5e-4,2.38478 h -1.54753 -1.54752 l -0.46014,-1.38045 c -0.40984,-1.22956 -0.48107,-1.39884 -0.6517,-1.54865 -0.24554,-0.21559 -0.61748,-0.38131 -1.17838,-0.52506 -0.60118,-0.15406 -1.73067,-0.12385 -2.30473,0.0616 -0.7375,0.23831 -1.35716,0.80165 -1.51749,1.37957 -0.0359,0.12922 -0.0638,0.42545 -0.0621,0.65828 0.006,0.80946 0.35989,1.41277 1.12489,1.9171 0.54868,0.36171 2.16889,1.18264 3.1776,1.61002 2.81832,1.19409 4.81877,2.54627 5.52222,3.73268 0.51755,0.87287 0.71553,1.74562 0.67071,2.95665 -0.0565,1.52678 -0.533,2.60555 -1.62055,3.66889 -0.99823,0.976 -2.21849,1.53544 -4.0658,1.86399 -0.93174,0.16571 -3.48538,0.20967 -4.54236,0.0782 z m -66.237553,-0.003 c -2.24631,-0.33737 -3.225334,-1.23516 -3.530146,-3.23721 -0.06766,-0.44443 -0.0817,-1.65947 -0.08197,-7.09789 l -3.33e-4,-6.56167 h -1.072444 -1.072445 v -1.0304 -1.0304 l 0.352778,-0.13294 c 1.601863,-0.60368 1.789719,-0.6939 2.051795,-0.98539 0.350203,-0.38951 0.656585,-0.9229 0.948855,-1.6519 0.23306,-0.5813 0.73498,-2.09741 0.99339,-3.00064 l 0.11707,-0.40922 h 1.62592 1.62591 l 0.0353,0.74789 c 0.0194,0.41134 0.0632,1.54799 0.0972,2.52589 0.0341,0.9779 0.0733,1.83515 0.0873,1.905 l 0.0254,0.127 h 2.510703 2.51071 v 1.46755 1.46756 h -2.48356 -2.483563 l 0.002,5.51744 c 0.002,5.53651 0.0265,6.39413 0.20088,7.01573 0.17792,0.6341 0.428303,0.75288 1.575223,0.74724 0.80559,-0.004 1.5908,-0.1176 2.34245,-0.33903 0.26388,-0.0777 0.51794,-0.15247 0.56458,-0.16607 0.0655,-0.0191 0.1669,0.22269 0.44507,1.06111 l 0.36027,1.08584 -0.14953,0.12862 c -0.23063,0.19838 -0.88396,0.56528 -1.4016,0.78712 -1.66327,0.71282 -3.572033,1.105 -5.293563,1.08765 -0.41929,-0.004 -0.82584,-0.0172 -0.90345,-0.0289 z m -63.048449,-1.42719 c 0,-1.02319 0.0089,-1.12763 0.09878,-1.15315 0.05433,-0.0154 0.695678,-0.0962 1.425223,-0.17953 0.729544,-0.0833 1.344698,-0.1681 1.367009,-0.18845 0.04638,-0.0423 2.596103,-20.36378 2.571233,-20.49292 -0.01287,-0.0668 -0.39007,-0.13463 -1.793823,-0.32252 -0.977642,-0.13086 -1.809281,-0.23952 -1.848086,-0.24147 -0.05415,-0.003 -0.07056,-0.28582 -0.07056,-1.21735 v -1.21381 l 5.995063,0.0144 5.995063,0.0144 1.821188,7.16845 c 1.001653,3.94264 2.025914,8.10706 2.276136,9.25427 0.250221,1.1472 0.465472,2.09635 0.478335,2.10921 0.03353,0.0335 0.05144,-0.0566 0.396346,-1.99371 0.273866,-1.53816 0.529846,-2.62013 2.116619,-8.94644 0.992791,-3.95817 1.831809,-7.29192 1.864482,-7.40833 l 0.05941,-0.21189 h 5.952236 5.952236 v 1.20727 1.20728 l -0.183445,0.0315 c -0.100894,0.0174 -0.945444,0.12606 -1.876778,0.24158 -0.931333,0.11552 -1.715528,0.22922 -1.742654,0.25266 -0.0495,0.0428 2.71856,20.41869 2.784587,20.4976 0.01919,0.0229 0.580006,0.11874 1.246257,0.21291 0.666251,0.0942 1.268516,0.18383 1.338366,0.19926 0.12653,0.028 0.127,0.0322 0.127,1.15587 v 1.12782 H 64.701176 58.77334 l 0.01528,-1.14141 0.01528,-1.14141 1.465797,-0.18798 c 0.806188,-0.10339 1.470162,-0.19301 1.475497,-0.19915 0.04126,-0.0475 -2.068683,-21.21847 -2.120566,-21.27753 -0.0209,-0.0238 -0.311243,1.20811 -0.645211,2.73755 -0.516634,2.366 -0.95052,4.07749 -2.908623,11.47326 l -2.301409,8.69244 -2.309021,0.0147 -2.309022,0.0147 -2.46799,-8.4814 c -1.396475,-4.79907 -2.81722,-9.8093 -3.272364,-11.53993 -0.442406,-1.6822 -0.812768,-3.05015 -0.823027,-3.03989 -0.01026,0.0103 -0.119571,1.4882 -0.242915,3.28432 -0.123345,1.79612 -0.512239,6.60577 -0.864209,10.68811 -0.351971,4.08235 -0.636474,7.42707 -0.63223,7.43273 0.0042,0.006 0.756622,0.089 1.67195,0.18518 0.915328,0.0962 1.721382,0.1873 1.791232,0.20246 0.126547,0.0275 0.127,0.0316 0.127,1.15537 v 1.12782 h -5.08 -5.079999 z m 15.823488,-41.22236 c -0.763917,-0.82879 -2.024068,-3.32214 -2.674435,-5.29166 -0.510722,-1.54664 -0.685685,-2.52007 -0.760892,-4.23334 -0.08718,-1.98595 0.259488,-5.14882 0.731774,-6.67648 0.280666,-0.90785 0.861079,-1.7548 2.179089,-3.17978 1.079803,-1.16744 1.72726,-1.64679 3.263271,-2.41598 1.213749,-0.60782 3.095258,-1.35581 3.824133,-1.52028 1.148815,-0.25924 2.759564,-0.23524 4.227126,0.063 1.062295,0.21587 1.339567,0.19938 2.401796,-0.14279 0.897127,-0.28899 1.728801,-0.46455 2.200669,-0.46455 0.433513,0 0.863203,-0.10158 0.968996,-0.22907 0.139192,-0.16774 0.07983,-0.78678 -0.106808,-1.11391 -0.220978,-0.38731 -0.949567,-1.22907 -1.272944,-1.47066 -0.622003,-0.4647 -1.079481,-0.62162 -2.244375,-0.76984 -1.621921,-0.20638 -3.623491,-0.86367 -5.672667,-1.86283 -1.315606,-0.64148 -1.800052,-1.11506 -2.887611,-2.82281 -0.568632,-0.89289 -0.827882,-1.213551 -0.981155,-1.213551 -0.14813,0 -0.737826,0.409231 -0.995986,0.691181 -0.550979,0.60175 -1.400606,1.895 -2.011894,3.06237 -0.432955,0.82682 -1.413655,1.97276 -2.304805,2.69316 -0.9628,0.77832 -2.196455,1.56798 -3.371138,2.15787 -2.007947,1.00834 -4.729033,1.26857 -9.54541,0.91288 -2.359306,-0.17423 -2.743545,-0.22049 -3.084562,-0.37134 -0.364601,-0.16128 -0.380388,-0.23879 -0.305074,-1.4979 0.105412,-1.76229 0.363168,-2.99921 1.024964,-4.91856 1.432541,-4.154671 4.376679,-9.849461 6.04432,-11.691401 0.830523,-0.91733 2.238152,-2.11905 3.338247,-2.84992 0.411914,-0.27367 0.597304,-0.52743 0.600624,-0.82215 8.15e-4,-0.0722 -0.161776,-0.46595 -0.361311,-0.87489 -0.407554,-0.83526 -1.063748,-2.470733 -1.493075,-3.721276 -0.363965,-1.060158 -0.939678,-3.955948 -1.139084,-5.729501 -0.144338,-1.283771 0.218164,-4.832504 0.57942,-5.672267 0.157883,-0.367007 0.328499,-0.448435 1.008866,-0.481487 0.974648,-0.04735 2.390683,0.174779 4.595776,0.720919 2.99419,0.741576 4.819515,1.436217 6.099951,2.321381 0.573727,0.396618 1.972671,1.656778 2.322142,2.091773 0.47419,0.590235 0.893057,1.297919 1.480921,2.502046 0.588582,1.205598 0.708487,1.375758 0.897979,1.274344 0.06279,-0.0336 0.807853,-0.828923 1.655696,-1.767376 2.859878,-3.165517 3.076421,-3.380071 3.940421,-3.90423 2.069472,-1.255475 2.989562,-1.46846 7.337778,-1.698574 0.884767,-0.04682 2.675466,-0.150638 3.979333,-0.2307 1.43722,-0.08825 2.726265,-0.138172 3.273778,-0.126784 0.830006,0.01726 0.925879,0.0302 1.184386,0.15983 0.376566,0.188829 0.493283,0.402372 0.525664,0.961747 0.03055,0.527649 -0.05122,1.266169 -0.247861,2.238733 -0.325027,1.607543 -1.779514,7.21485 -2.175282,8.386098 -0.62089,1.837484 -1.471041,3.425084 -2.488365,4.646854 -0.522134,0.62706 -0.993409,1.03348 -1.872875,1.61513 -1.045736,0.69162 -1.898029,1.05467 -3.152445,1.34286 -0.500432,0.11496 -0.550333,0.13823 -0.550333,0.25655 0,0.0716 0.289811,0.69708 0.644024,1.39004 0.354214,0.69296 0.684933,1.41799 0.734931,1.61118 0.283088,1.09386 0.410419,3.14687 0.311807,5.02741 -0.05112,0.974821 -0.05043,1.566001 0.0031,2.624671 0.134178,2.65567 0.08726,3.60149 -0.188225,3.79444 -0.14444,0.10117 -0.452091,0.10586 -1.119193,0.017 -0.349686,-0.0466 -0.519178,-0.0488 -0.560468,-0.008 -0.130884,0.13088 0.780904,2.1001 1.326238,2.86431 0.135094,0.18932 0.362353,0.45181 0.50502,0.58332 0.211814,0.19524 0.299437,0.2391 0.477694,0.2391 0.202818,0 0.258763,-0.0416 0.788839,-0.58642 0.313797,-0.32252 0.587302,-0.65319 0.607787,-0.73482 0.04216,-0.16798 0.03651,-0.19993 -0.164878,-0.93195 -0.329044,-1.19604 -0.402162,-1.82397 -0.401458,-3.4477 7.07e-4,-1.63096 0.0659,-2.18995 0.341397,-2.92716 0.695237,-1.860451 2.989052,-4.174301 6.28898,-6.343941 1.983295,-1.30398 3.587359,-2.06106 5.572472,-2.63008 1.626451,-0.46622 2.97157,-0.70829 6.309083,-1.1354 1.210734,-0.15495 2.427164,-0.31155 2.703179,-0.34801 0.457639,-0.0605 0.519045,-0.057 0.697113,0.0389 0.199712,0.10755 0.584779,0.60148 0.796545,1.02173 0.787701,1.56321 1.382271,4.37899 1.458091,6.90533 0.0603,2.010181 -0.12256,3.075371 -0.74139,4.318001 -1.763428,3.54101 -6.629135,6.58753 -11.940871,7.47642 -2.552345,0.42713 -4.381951,0.28708 -6.716888,-0.51416 -1.87776,-0.64435 -1.917016,-0.65094 -2.041366,-0.3426 -0.03408,0.0845 -0.237825,0.52414 -0.452757,0.97695 -0.584801,1.23201 -0.587079,1.60981 -0.01287,2.1346 0.893003,0.81616 3.378854,1.94415 4.736552,2.14929 0.23732,0.0359 0.559988,0.1401 0.807964,0.26103 0.390544,0.19045 0.582698,0.37211 3.556,3.36183 1.728731,1.73827 3.150078,3.17927 3.158549,3.20222 0.0085,0.0229 -0.550308,0.58608 -1.241732,1.2514 -0.691424,0.66533 -1.543306,1.48723 -1.893071,1.82646 l -0.635937,0.61677 -3.085905,-3.07211 c -2.516158,-2.50491 -3.160891,-3.17777 -3.492051,-3.64444 -2.38554,-3.3617 -4.516656,-5.64571 -6.035203,-6.46821 -1.068537,-0.57875 -1.529242,-0.69138 -2.822614,-0.69008 -1.066836,0.001 -1.53682,0.0748 -1.917286,0.30098 -0.146323,0.087 -0.169341,0.13185 -0.158635,0.30933 0.0069,0.11418 0.24137,0.90173 0.521072,1.75012 0.766546,2.32509 0.961252,3.25424 0.96185,4.59 5.58e-4,1.24759 -0.159775,2.05681 -0.786449,3.96931 -0.408166,1.24565 -0.868925,2.20724 -1.392866,2.90689 -0.709125,0.94692 -2.957843,3.07216 -4.367908,4.12806 -1.185944,0.88807 -2.057001,1.38532 -3.697111,2.1105 -1.73813,0.76853 -4.853839,1.9741 -5.101904,1.9741 -0.05766,0 -0.204329,-0.10795 -0.32594,-0.23989 z m 2.50736,-3.37225 c 0.217009,-0.13231 0.408091,-0.4227 0.408761,-0.62119 7.72e-4,-0.22854 1.904802,-7.20479 1.941079,-7.112 0.01821,0.0466 0.299581,1.17078 0.625278,2.49825 0.325698,1.32746 0.630412,2.48751 0.677143,2.57788 0.264765,0.512 0.987694,0.58874 1.376336,0.1461 0.247268,-0.28162 0.277721,-0.57353 0.100268,-0.96114 -0.142474,-0.3112 -1.785047,-6.18192 -1.785047,-6.37993 0,-0.0872 2.36156,-4.37794 2.475375,-4.49758 0.06175,-0.0649 2.866748,5.4273 2.91366,5.70497 0.114858,0.67984 0.942762,0.96916 1.416798,0.49513 0.348711,-0.34871 0.363145,-0.87172 0.03321,-1.20349 -0.08987,-0.0904 -0.801755,-1.45947 -1.660569,-3.19361 l -1.50326,-3.03542 1.687373,-1.45191 1.687372,-1.45192 -0.349982,-0.0357 c -0.19249,-0.0197 -0.616681,-0.0376 -0.942648,-0.0399 l -0.592667,-0.004 -2.472251,2.27679 c -2.132928,1.9643 -2.500918,2.28105 -2.681111,2.30778 -0.114873,0.017 -1.0641,0.12495 -2.109395,0.23979 l -1.900534,0.20881 -0.308092,-0.1277 c -0.379169,-0.15716 -0.63594,-0.12371 -0.912155,0.11881 -0.232021,0.20371 -0.338022,0.49074 -0.285206,0.77228 0.137466,0.73275 0.994432,0.94243 1.52437,0.37298 0.108361,-0.11644 0.196332,-0.12544 2.032374,-0.20779 1.055511,-0.0473 1.927084,-0.0783 1.936828,-0.0688 0.0097,0.009 -0.599856,1.17971 -1.354667,2.60051 l -1.372383,2.58325 -0.979316,0.85155 c -0.538624,0.46835 -1.046624,0.87925 -1.128889,0.91311 -0.08226,0.0339 -0.678424,0.12004 -1.324798,0.1915 -1.021909,0.11298 -1.214675,0.12047 -1.477615,0.0574 -0.409861,-0.0983 -0.68204,-0.045 -0.913035,0.17889 -0.767238,0.74364 0.294948,1.93805 1.11206,1.25049 0.148637,-0.12507 0.468997,-0.21151 2.185004,-0.58959 1.105957,-0.24368 2.018002,-0.43587 2.026768,-0.42711 0.03817,0.0382 -1.124615,3.67499 -1.250979,3.91265 -0.166976,0.31404 -0.177122,0.54562 -0.03558,0.81198 0.22678,0.42676 0.77642,0.58423 1.180113,0.33809 z m -0.720182,-0.39556 c -0.265578,-0.26558 0.0037,-0.80175 0.358028,-0.71283 0.494325,0.12407 0.465808,0.77197 -0.03586,0.81482 -0.14722,0.0126 -0.235564,-0.0154 -0.322164,-0.10199 z m 4.82534,-2.3714 c -0.15544,-0.17176 -0.132473,-0.44319 0.05084,-0.60087 0.08452,-0.0727 0.201634,-0.13218 0.26026,-0.13218 0.1849,0 0.413926,0.2445 0.413926,0.4419 0,0.24969 -0.158582,0.40477 -0.413926,0.40477 -0.137042,0 -0.24345,-0.0389 -0.311104,-0.11362 z m -9.058673,-1.63616 c -0.0866,-0.0866 -0.114569,-0.17494 -0.101994,-0.32216 0.04285,-0.50168 0.690749,-0.53019 0.814817,-0.0359 0.08892,0.35431 -0.447246,0.62361 -0.712823,0.35803 z m 14.299452,-4.03446 c -0.320633,-0.22458 -0.136976,-0.76332 0.260218,-0.76332 0.194019,0 0.398107,0.21912 0.398107,0.42743 0,0.35375 -0.366129,0.54055 -0.658325,0.33589 z m -10.924678,-4.11404 c -0.161697,-0.12285 -0.211236,-0.32981 -0.126936,-0.5303 0.132487,-0.3151 0.59748,-0.31343 0.74899,0.003 0.179729,0.37499 -0.294032,0.77682 -0.622054,0.52761 z m 35.502094,-9.04579 c 0.193209,-0.14077 0.408863,-0.55442 0.407224,-0.78111 -0.0019,-0.25593 -0.187715,-0.61736 -0.392449,-0.76314 -0.220778,-0.15721 -0.614353,-0.2093 -0.894248,-0.11836 -0.20601,0.0669 -0.22425,0.059 -2.070508,-0.89824 -1.024466,-0.53118 -1.882965,-0.98603 -1.907776,-1.0108 -0.02481,-0.0248 1.198255,-0.82197 2.717922,-1.77155 l 2.763031,-1.72652 1.496063,-0.28309 1.496064,-0.28309 1.333162,0.58155 c 1.166445,0.50883 1.357795,0.61034 1.530145,0.81169 0.590954,0.6904 1.662728,0.28903 1.662728,-0.62268 0,-0.55427 -0.569489,-1.00336 -1.119901,-0.88313 -0.153809,0.0336 -0.585537,-0.0838 -2.342445,-0.636981 -1.184635,-0.37299 -2.173856,-0.69688 -2.19827,-0.71976 -0.05445,-0.051 3.020489,-2.914 3.259671,-3.03498 0.383219,-0.19383 0.551299,-0.45933 0.551299,-0.87083 0,-0.31988 -0.140091,-0.58958 -0.395728,-0.76185 -0.371666,-0.25047 -0.885006,-0.21585 -1.148508,0.0774 -0.293046,0.32618 -5.943058,5.992931 -5.959169,5.976811 -0.0093,-0.009 0.338712,-1.252541 0.773389,-2.762731 0.476803,-1.65654 0.790323,-2.84367 0.790323,-2.99251 0,-0.48302 -0.422624,-0.8843 -0.931333,-0.8843 -0.512776,0 -0.931333,0.40097 -0.931333,0.8922 0,0.31405 -1.782283,7.188411 -1.87886,7.246861 -1.12397,0.68025 -4.870427,2.90248 -4.881028,2.89522 -0.0081,-0.006 0.06213,-1.57405 0.156138,-3.48551 0.129452,-2.632251 0.191234,-3.524001 0.254666,-3.675811 0.117009,-0.28005 0.104695,-0.48538 -0.04623,-0.77077 -0.15236,-0.28812 -0.509336,-0.50575 -0.829579,-0.50575 -0.619711,0 -1.111349,0.66585 -0.90071,1.21987 0.04331,0.11391 -0.0027,1.13213 -0.174079,3.856011 -0.128109,2.03568 -0.251649,3.73781 -0.274534,3.78252 -0.02901,0.0567 -0.77501,0.22054 -2.463939,0.5412 l -2.42233,0.45991 0.225018,0.14186 c 0.849929,0.53584 1.555026,0.94863 1.618226,0.94737 0.04089,-8.1e-4 1.697699,-0.36516 3.681795,-0.80967 l 3.607448,-0.80819 2.178108,0.95333 c 1.197959,0.52432 2.186169,0.97636 2.196021,1.00452 0.05711,0.16322 0.291116,0.42667 0.461865,0.51998 0.257615,0.14078 0.778418,0.11636 1.002647,-0.047 z m -0.864102,-0.44203 c -0.19661,-0.19661 -0.184203,-0.44537 0.03305,-0.66262 0.144245,-0.14425 0.200441,-0.16583 0.352581,-0.1354 0.229918,0.046 0.366405,0.18247 0.412388,0.41239 0.03043,0.15214 0.0088,0.20833 -0.135397,0.35258 -0.217252,0.21725 -0.466011,0.22966 -0.662622,0.033 z m 7.783758,-6.03481 c -0.40987,-0.35255 0.02991,-1.01352 0.505741,-0.76009 0.180936,0.0964 0.26081,0.22319 0.26081,0.41411 0,0.19092 -0.07987,0.31775 -0.26081,0.41411 -0.186724,0.0995 -0.333979,0.0796 -0.505741,-0.0681 z m -15.9982,-4.038751 c -0.09947,-0.0995 -0.164992,-0.22448 -0.164992,-0.31478 0,-0.0903 0.06553,-0.21533 0.164992,-0.31479 0.09946,-0.0995 0.224482,-0.16499 0.314786,-0.16499 0.0903,0 0.215321,0.0655 0.314786,0.16499 0.09946,0.0995 0.164992,0.22448 0.164992,0.31479 0,0.0903 -0.06553,0.21532 -0.164992,0.31478 -0.09946,0.0995 -0.224483,0.16499 -0.314786,0.16499 -0.0903,0 -0.215322,-0.0655 -0.314786,-0.16499 z m 14.141109,-2.17489 c -0.292039,-0.29203 -0.09037,-0.82101 0.31301,-0.82101 0.245822,0 0.451555,0.2186 0.451555,0.47978 0,0.26119 -0.205733,0.47978 -0.451555,0.47978 -0.109975,0 -0.225677,-0.0512 -0.31301,-0.13855 z m -5.78299,-0.29642 c -0.343601,-0.12561 -0.448032,-0.53324 -0.200121,-0.78115 0.261634,-0.26164 0.675418,-0.136 0.789209,0.23963 0.0553,0.18256 -0.103721,0.44566 -0.313574,0.51881 -0.09871,0.0344 -0.18203,0.0606 -0.185159,0.0581 -0.0031,-0.002 -0.04379,-0.0184 -0.09035,-0.0354 z M 38.756458,107.76356 c 0.582035,-0.24319 0.701602,-0.95447 0.236507,-1.40694 l -0.186245,-0.18118 -0.03495,-2.39889 c -0.01922,-1.31939 -0.04901,-2.81799 -0.06618,-3.33022 l -0.03123,-0.931341 0.920772,-1.55598 0.920773,-1.55599 0.762,-0.67524 c 2.712309,-2.40351 3.232389,-2.85277 3.197646,-2.76223 -0.02139,0.0557 -0.21621,0.4329 -0.432935,0.83813 -0.216725,0.40523 -0.395144,0.77655 -0.396487,0.82516 -0.0013,0.0486 0.346799,2.25272 0.77365,4.89803 l 0.776091,4.809651 -0.124538,0.22159 c -0.484479,0.86201 0.521982,1.72007 1.25877,1.07317 0.378212,-0.33208 0.380166,-0.89211 0.0043,-1.22216 -0.105215,-0.0924 -0.219092,-0.17725 -0.253062,-0.1886 -0.04785,-0.016 -1.698988,-9.474761 -1.698319,-9.729081 8.1e-5,-0.0311 0.379999,-0.50095 0.844261,-1.04422 l 0.844114,-0.98778 0.0022,-0.56582 0.0022,-0.56582 -0.896198,-0.69394 c -0.849299,-0.65763 -0.897771,-0.70567 -0.926251,-0.918 -0.106479,-0.79386 -1.145799,-1.00581 -1.564522,-0.31905 -0.318979,0.52317 0.0872,1.2274 0.708263,1.22797 0.198888,1.9e-4 0.316637,0.0658 0.917222,0.51096 0.378973,0.28092 0.689042,0.531 0.689042,0.55575 0,0.038 -4.49151,3.77679 -4.812862,4.00634 -0.07174,0.0512 -0.422667,0.0971 -1.035935,0.13547 -0.894871,0.0559 -0.931851,0.054 -1.052989,-0.0563 -0.190946,-0.17386 -0.35173,-0.24131 -0.575205,-0.24131 -0.759929,0 -1.139928,0.81742 -0.643069,1.38331 0.347891,0.39622 0.898082,0.38129 1.253584,-0.034 l 0.195672,-0.2286 0.555513,-0.043 c 0.305532,-0.0236 0.5658,-0.0348 0.578374,-0.0248 0.02283,0.0182 -0.492112,1.03932 -2.187342,4.337511 l -0.899363,1.74978 -0.28283,0.0355 c -0.350688,0.044 -0.539976,0.17684 -0.693264,0.48651 -0.16675,0.33687 -0.11072,0.63312 0.173494,0.91734 0.278985,0.27898 0.567977,0.33587 0.918503,0.18082 0.425123,-0.18805 0.599015,-0.64055 0.427954,-1.11361 -0.06106,-0.16884 -0.03518,-0.23502 0.465084,-1.18934 0.311984,-0.59515 0.535028,-0.96414 0.542607,-0.89765 0.0071,0.0621 0.05382,1.22825 0.10387,2.59148 l 0.091,2.47859 -0.180663,0.14139 c -0.491107,0.38435 -0.430743,1.11616 0.115911,1.40524 0.279614,0.14787 0.436565,0.15947 0.69518,0.0514 z m -0.41367,-0.35873 c -0.290073,-0.10472 -0.381897,-0.48061 -0.169334,-0.69317 0.355634,-0.35563 0.948032,0.15222 0.610903,0.52372 -0.140942,0.15531 -0.305657,0.21852 -0.441569,0.16945 z m 7.307595,-1.98918 c -0.273886,-0.10976 -0.361759,-0.46475 -0.168033,-0.67882 0.133893,-0.14795 0.482956,-0.15387 0.6128,-0.0104 0.124065,0.13709 0.120968,0.47597 -0.0054,0.58691 -0.134962,0.11851 -0.301944,0.15739 -0.439404,0.1023 z m -9.787054,-1.61849 c -0.133951,-0.17029 -0.142517,-0.24149 -0.05276,-0.43848 0.09017,-0.19791 0.351779,-0.28075 0.55489,-0.17572 0.170689,0.0883 0.227552,0.18839 0.227552,0.40065 0,0.34798 -0.507178,0.49642 -0.729681,0.21355 z m 1.35057,-7.132611 c -0.209002,-0.209 -0.125832,-0.55507 0.162055,-0.67432 0.131608,-0.0545 0.193974,-0.0542 0.29849,0.001 0.290164,0.15459 0.348532,0.39255 0.156247,0.637 -0.146586,0.18636 -0.44872,0.20391 -0.616792,0.0358 z m 5.926666,-6.54756 c -0.168072,-0.16807 -0.150519,-0.4702 0.03583,-0.61679 0.170106,-0.1338 0.241535,-0.14249 0.437473,-0.0532 0.186747,0.0851 0.282841,0.3216 0.209277,0.51509 -0.104256,0.27422 -0.478378,0.35913 -0.682584,0.15492 z m 24.512542,14.672161 c 0.650953,-0.18077 0.905758,-0.89222 0.525398,-1.46698 -0.112101,-0.1694 -0.145941,-0.29182 -0.145941,-0.52796 0,-0.3005 -0.03117,-0.35995 -1.384196,-2.63999 l -1.384197,-2.332561 -1.260237,-1.55222 c -0.693131,-0.85372 -1.254495,-1.55966 -1.247476,-1.56874 0.01708,-0.0221 3.141937,0.15568 3.222868,0.18336 0.03489,0.0119 0.08035,0.11188 0.101024,0.2221 0.04689,0.24993 0.280379,0.53355 0.522544,0.63473 0.711135,0.29713 1.471154,-0.31058 1.310061,-1.04753 -0.138313,-0.63273 -0.903166,-0.95268 -1.427243,-0.59703 -0.114366,0.0776 -0.238561,0.14092 -0.275987,0.1407 -0.03743,-2.2e-4 -0.550649,-0.15183 -1.140494,-0.3369 l -1.072444,-0.3365 -1.006849,0.31501 c -0.562807,0.17609 -1.028161,0.29355 -1.055174,0.26635 -0.02658,-0.0268 -0.457771,-0.59476 -0.958203,-1.26222 l -0.909878,-1.21355 1.203052,-0.036 c 2.948953,-0.0882 4.22283,-0.056 4.22283,0.10666 0,0.17051 0.245992,0.51258 0.451783,0.62824 0.796464,0.44763 1.686016,-0.35449 1.332206,-1.20128 -0.22547,-0.53962 -1.013587,-0.71223 -1.460641,-0.3199 l -0.182237,0.15993 -0.674845,-0.24799 -0.674844,-0.24798 -2.203822,0.0836 c -1.212103,0.046 -2.495923,0.0972 -2.852934,0.11385 -0.602938,0.0281 -0.689115,0.0184 -1.211506,-0.13678 -0.309318,-0.0919 -0.570127,-0.15929 -0.579577,-0.14984 -0.03733,0.0373 -0.692472,1.69656 -0.692472,1.75377 0,0.0336 0.3683,0.18288 0.818444,0.33174 0.620085,0.20504 0.818587,0.29361 0.819032,0.36543 7.66e-4,0.1235 -0.730165,6.15078 -0.766454,6.3202 -0.01525,0.0712 -0.07141,0.14517 -0.124815,0.16441 -0.343444,0.12377 -0.630839,0.52992 -0.630839,0.891511 0,0.25424 0.186828,0.61546 0.394993,0.76368 0.264179,0.18811 0.698751,0.21541 0.9981,0.0627 0.258048,-0.13164 0.457317,-0.41194 0.505959,-0.71169 0.04075,-0.25113 -0.110536,-0.666731 -0.295747,-0.812421 l -0.135121,-0.10628 0.393478,-2.33555 c 0.216413,-1.28455 0.405884,-2.38634 0.421047,-2.44843 0.016,-0.0655 0.231605,-0.24047 0.513639,-0.41683 l 0.48607,-0.30395 0.187684,0.19106 c 0.103226,0.10508 0.805716,0.88255 1.561088,1.72771 l 1.373404,1.53665 -0.123684,1.79357 c -0.06803,0.986461 -0.126504,1.857071 -0.129949,1.934681 -0.0047,0.10689 -0.0638,0.16937 -0.243519,0.25765 -0.456746,0.22435 -0.62602,0.81364 -0.366405,1.27556 0.366857,0.65274 1.320612,0.63385 1.665442,-0.033 0.162876,-0.31497 0.100506,-0.74056 -0.162835,-1.11113 -0.05054,-0.0711 0.01307,-0.41494 0.294865,-1.593921 0.197618,-0.82678 0.376086,-1.48448 0.396596,-1.46154 0.06666,0.0745 1.788613,3.640181 1.995561,4.132201 0.233177,0.55439 0.235785,0.5737 0.09473,0.70135 -0.05849,0.0529 -0.136806,0.20504 -0.174038,0.33802 -0.131152,0.46842 0.131375,0.9729 0.590827,1.13534 0.276707,0.0978 0.287625,0.0983 0.551876,0.0249 z m -0.554441,-0.5867 c -0.288257,-0.28826 -0.08117,-0.76457 0.332413,-0.76457 0.255298,0 0.427825,0.14908 0.468803,0.40508 0.02768,0.17289 0.009,0.23175 -0.112039,0.35278 -0.195293,0.19529 -0.497653,0.19823 -0.689177,0.007 z m -4.067098,-1.57879 c -0.196273,-0.0856 -0.248337,-0.18128 -0.248337,-0.4563 0,-0.13678 0.041,-0.22109 0.148723,-0.30583 0.316531,-0.24898 0.754388,-0.0586 0.754388,0.32803 0,0.20061 -0.157271,0.4581 -0.279804,0.4581 -0.0273,0 -0.08346,0.0118 -0.124801,0.0262 -0.04135,0.0144 -0.153921,-0.008 -0.250169,-0.0502 z M 57.50311,100.59 c -0.19661,-0.19661 -0.184203,-0.44537 0.03305,-0.662621 0.144246,-0.14424 0.200442,-0.16582 0.352582,-0.1354 0.229918,0.046 0.366405,0.18247 0.412388,0.412391 0.03043,0.15214 0.0088,0.20834 -0.135397,0.35258 -0.217252,0.21726 -0.466011,0.22966 -0.662622,0.033 z m 9.210622,-5.340661 c -0.109958,-0.0865 -0.148723,-0.16838 -0.148723,-0.31415 0,-0.26222 0.07324,-0.38541 0.280065,-0.47108 0.200706,-0.0831 0.476764,5.8e-4 0.568759,0.17247 0.249827,0.46681 -0.287628,0.93721 -0.700101,0.61276 z m -0.623483,-3.3869 c -0.169015,-0.20086 -0.17822,-0.27788 -0.06044,-0.50565 0.144493,-0.27942 0.528848,-0.31876 0.746863,-0.0764 0.269183,0.2992 0.06065,0.75575 -0.345195,0.75575 -0.14857,0 -0.229956,-0.0414 -0.341232,-0.17366 z m -15.16701,-1.00161 c 1.090218,-1.03446 1.982215,-1.90096 1.982215,-1.92555 0,-0.0246 -0.100909,-0.11464 -0.224242,-0.20011 l -0.224241,-0.1554 -0.273468,0.2465 c -0.150407,0.13558 -1.066956,0.9831 -2.036774,1.88339 l -1.763306,1.63689 0.23112,0.21567 c 0.127116,0.11862 0.252577,0.20752 0.278801,0.19755 0.02622,-0.01 0.939677,-0.86449 2.029895,-1.89894 z m 5.786186,-1.37949 c 0.03216,-0.051 0.04668,-0.10396 0.03225,-0.11771 -0.05513,-0.0526 -2.38024,-1.39153 -2.416365,-1.39153 -0.02092,0 -0.06712,0.0466 -0.102664,0.10349 -0.05828,0.0933 0.05268,0.17342 1.129422,0.81538 0.656727,0.39154 1.217634,0.70541 1.24646,0.69749 0.02883,-0.008 0.07873,-0.0561 0.110893,-0.10712 z m 13.076261,-2.16982 c 0.337419,-0.28392 0.421713,-0.69857 0.221708,-1.09062 -0.1967,-0.38556 -0.612976,-0.54646 -0.962584,-0.37205 -0.100608,0.0502 -0.203956,0.0912 -0.229662,0.0912 -0.04028,0 -5.447146,-3.298409 -5.523914,-3.369815 -0.01552,-0.01444 0.73378,-0.770558 1.665111,-1.680271 l 1.693331,-1.654022 1.185333,-0.379344 1.185333,-0.379343 1.740837,0.559978 1.740837,0.559979 0.12183,0.301626 c 0.155435,0.384827 0.35591,0.537883 0.704524,0.537883 0.33799,0 0.585063,-0.170174 0.713645,-0.491531 0.144801,-0.361893 0.07678,-0.688629 -0.201235,-0.966645 -0.213319,-0.213319 -0.231492,-0.219979 -0.532231,-0.195039 -0.245407,0.02035 -0.347271,0.06021 -0.480828,0.188171 l -0.169456,0.16235 -1.310962,-0.528333 C 70.626275,78.31516 69.952508,78.035556 69.850044,77.9844 l -0.186298,-0.09301 1.793138,-0.793343 1.793138,-0.793344 0.17116,0.104378 c 0.509046,0.310429 1.122343,-0.09496 1.122343,-0.741867 0,-0.897613 -1.047992,-1.161046 -1.461685,-0.367422 -0.106737,0.204763 -0.176585,0.248248 -0.931333,0.579814 -1.029275,0.452168 -2.087897,0.876913 -2.115871,0.848939 -0.01178,-0.01178 0.159584,-0.340072 0.380807,-0.729537 0.352004,-0.619704 0.430971,-0.721764 0.632451,-0.817402 0.310303,-0.147294 0.504868,-0.510897 0.460056,-0.859754 -0.05795,-0.451137 -0.379061,-0.743083 -0.817317,-0.743083 -0.184302,0 -0.267521,0.0393 -0.44925,0.212179 -0.262076,0.249307 -0.339915,0.534308 -0.243938,0.893156 0.06019,0.225046 0.04507,0.2792 -0.363085,1.300412 -0.23424,0.586073 -0.444212,1.08476 -0.466605,1.108193 -0.02239,0.02343 -0.877522,0.338347 -1.900286,0.699807 l -1.859571,0.657199 -0.846667,0.799808 c -0.934549,0.882827 -1.880978,1.723898 -1.938487,1.72269 -0.05443,-0.0011 -0.47581,-1.762918 -0.504552,-2.109519 -0.01958,-0.236062 0.004,-0.352945 0.115678,-0.574684 0.07714,-0.153093 0.208022,-0.468852 0.290852,-0.701685 0.08283,-0.232833 0.184363,-0.449183 0.225631,-0.480776 0.158455,-0.121307 0.314682,-0.456954 0.314802,-0.676335 3.52e-4,-0.644204 -0.64798,-1.078626 -1.1234,-0.752747 -0.304447,0.208684 -0.406322,0.385028 -0.408821,0.707661 -0.0012,0.157544 0.02709,0.341211 0.06292,0.408149 0.05346,0.0999 0.0272,0.252965 -0.146557,0.854207 l -0.211693,0.7325 0.271086,1.697571 c 0.28485,1.78377 0.28441,1.773693 0.109559,2.510032 -0.02232,0.09399 0.08932,0.219585 0.551867,0.620889 0.904396,0.78465 0.796454,0.724573 1.060151,0.590045 0.124192,-0.06336 0.256279,-0.115196 0.293527,-0.115196 0.03725,0 1.181259,0.650933 2.542248,1.446533 1.636983,0.95692 2.474945,1.47752 2.475765,1.53811 6.82e-4,0.0504 0.05,0.199 0.109607,0.3303 0.209472,0.46145 0.7736,0.61774 1.134275,0.31425 z m -0.639125,-0.31308 c -0.0511,-0.0388 -0.118745,-0.14019 -0.150316,-0.22529 -0.149445,-0.40284 0.31914,-0.73556 0.616764,-0.43793 0.324485,0.32448 -0.106166,0.9368 -0.466448,0.66322 z m 4.040577,-6.996208 c -0.184101,-0.08818 -0.273718,-0.345 -0.190495,-0.545916 0.12588,-0.303903 0.529457,-0.345743 0.676934,-0.07018 0.19271,0.360082 -0.140318,0.781876 -0.486439,0.616096 z M 62.049454,76.739659 c -0.06988,-0.06988 -0.112889,-0.188148 -0.112889,-0.310444 0,-0.455574 0.532268,-0.590617 0.705357,-0.178958 0.17745,0.422029 -0.281079,0.800792 -0.592468,0.489402 z m 11.521089,-0.719666 c -0.289688,-0.240517 -0.138097,-0.747889 0.223451,-0.747889 0.363799,0 0.520652,0.439938 0.252469,0.708121 -0.163453,0.163453 -0.311998,0.175866 -0.47592,0.03977 z m -2.97985,-1.21065 c -0.185661,-0.08893 -0.273716,-0.345003 -0.188979,-0.549576 0.119877,-0.289409 0.534131,-0.330519 0.675161,-0.067 0.192948,0.360527 -0.13978,0.782493 -0.486182,0.616578 z M 58.011099,84.959139 59.40288,83.385515 59.188056,83.254991 c -0.165322,-0.100446 -0.229681,-0.115023 -0.279296,-0.06326 -0.03546,0.037 -0.714594,0.788421 -1.509188,1.669839 l -1.444717,1.60257 0.210966,0.1585 0.210966,0.15849 0.121266,-0.12418 c 0.0667,-0.0683 0.747567,-0.83231 1.513046,-1.697811 z m -10.024293,0.86606 c 0.858112,-0.0942 1.601911,-0.18398 1.652887,-0.19943 0.05098,-0.0154 0.107779,-0.0844 0.126229,-0.1532 0.04762,-0.17763 0.04301,-0.53748 -0.0072,-0.56491 -0.02328,-0.0127 -0.823652,0.0596 -1.778597,0.16068 l -1.736265,0.1838 -0.970133,-0.30513 c -0.533574,-0.16782 -0.974354,-0.30513 -0.979512,-0.30513 -0.0052,0 -0.05275,-0.11358 -0.105769,-0.25239 -0.179934,-0.471155 -0.667505,-0.731804 -1.116995,-0.597133 -0.69974,0.209647 -0.936285,1.000053 -0.457791,1.529693 0.312562,0.34596 0.80616,0.42079 1.208525,0.1832 0.135589,-0.0801 0.220897,-0.0666 1.27,0.20085 0.618557,0.15766 1.171857,0.28752 1.229556,0.28856 0.0577,0.001 0.806999,-0.0752 1.665111,-0.16946 z m -4.789796,-0.65756 c -0.510556,-0.19372 -0.405117,-0.920869 0.133527,-0.920869 0.269665,0 0.513194,0.280059 0.462768,0.532189 -0.05704,0.28519 -0.355801,0.47993 -0.596295,0.38868 z m 10.517119,0.5608 c 0.01381,-0.0233 -0.270438,-0.35022 -0.631669,-0.72653 -0.59534,-0.62019 -0.66944,-0.67947 -0.792064,-0.63376 -0.129563,0.0483 -0.108092,0.0787 0.508,0.7201 0.595544,0.61997 0.830345,0.78412 0.915733,0.64019 z m -0.893414,-5.891293 c 0.776099,-1.467444 0.927672,-1.718234 1.106815,-1.831323 0.43948,-0.277431 0.596506,-0.719997 0.419711,-1.182926 -0.265863,-0.696153 -1.22706,-0.800324 -1.651718,-0.179008 -0.15708,0.229824 -0.203995,0.576438 -0.112281,0.829548 0.07718,0.212993 0.09233,0.167955 -0.678785,2.018003 l -0.217667,0.522226 -2.095666,-2.668651 -2.095666,-2.668651 -1.589725,-0.735338 -1.589724,-0.735338 -0.09931,-0.293368 c -0.123159,-0.3638 -0.24531,-0.504489 -0.560379,-0.645421 -0.372383,-0.16657 -0.699127,-0.100049 -1.00347,0.204293 -0.405766,0.405767 -0.405766,0.906279 0,1.312045 0.322723,0.322723 0.648553,0.377988 1.051835,0.178406 l 0.279471,-0.138308 0.495429,0.278102 c 0.272486,0.152956 0.827823,0.45356 1.234081,0.668009 l 0.738652,0.389906 0.622794,0.945376 c 0.342537,0.519957 0.688829,1.051609 0.769537,1.181449 l 0.146741,0.236072 -0.181743,0.05689 c -0.09996,0.03129 -0.602502,0.173612 -1.116761,0.31627 l -0.935018,0.259378 -1.171853,-0.256009 c -0.64452,-0.140805 -1.179161,-0.25601 -1.188092,-0.25601 -0.0089,0 -0.05961,-0.113577 -0.112629,-0.252394 -0.241207,-0.631594 -0.984609,-0.821215 -1.504499,-0.383757 -0.499451,0.42026 -0.409606,1.214516 0.172185,1.522175 0.411208,0.217451 0.777382,0.159678 1.131146,-0.178467 l 0.197555,-0.188834 1.229082,0.313502 1.229082,0.313502 1.565223,-0.431752 c 0.860873,-0.237464 1.594629,-0.431752 1.630568,-0.431752 0.135645,0 1.571327,2.786971 1.635022,3.173934 0.01907,0.115831 0.07335,0.24283 0.120636,0.282222 0.04728,0.03939 0.304463,0.08629 0.571512,0.10422 0.267048,0.01793 0.524495,0.03698 0.572104,0.04233 0.05951,0.0067 0.367592,-0.521634 0.98581,-1.690557 z M 42.209232,78.141364 c -0.290089,-0.172338 -0.34422,-0.526394 -0.115455,-0.755159 0.178441,-0.178441 0.42749,-0.180314 0.631596,-0.0047 0.192843,0.165876 0.214974,0.486619 0.04528,0.656308 -0.139842,0.139842 -0.414966,0.19061 -0.561426,0.1036 z m 11.047812,-0.536372 c -0.09333,-0.03755 -0.238701,-0.320291 -0.238701,-0.464271 0,-0.0619 0.06021,-0.182541 0.133796,-0.268092 0.10189,-0.118454 0.184397,-0.155547 0.345981,-0.155547 0.161585,0 0.244092,0.03709 0.345982,0.155547 0.07359,0.08555 0.133796,0.206193 0.133796,0.268092 0,0.157157 -0.147139,0.42501 -0.256529,0.466987 -0.105956,0.04066 -0.360217,0.03917 -0.464325,-0.0027 z M 43.19701,73.595352 c -0.343602,-0.125605 -0.448032,-0.533236 -0.200122,-0.781147 0.261635,-0.261635 0.675419,-0.135994 0.789209,0.239633 0.05023,0.165798 -0.092,0.429623 -0.277066,0.513944 -0.159445,0.07265 -0.183012,0.07473 -0.312021,0.02757 z"
         id="path1" /><path
         style="fill:#000000"
         d="m 111.83155,154.61134 c -0.64524,-0.14017 -0.84772,-0.29451 -2.39884,-1.82859 l -1.45332,-1.43737 -0.16196,0.15516 -0.16196,0.15517 -0.20649,-0.14013 c -0.44366,-0.30108 -1.06263,-0.30226 -1.51791,-0.003 -0.11751,0.0773 -0.23673,0.12621 -0.26493,0.10878 -0.0282,-0.0174 0.0249,-0.1543 0.11807,-0.30414 0.29577,-0.47579 0.28026,-1.08187 -0.0386,-1.50924 l -0.13113,-0.17576 0.16798,-0.16094 0.16799,-0.16094 -1.81152,-1.81217 -1.81152,-1.81216 -0.32091,0.15238 c -0.72009,0.34194 -1.20945,0.33909 -1.50214,-0.009 -0.25958,-0.30849 -0.23965,-0.74404 0.0652,-1.42382 l 0.14733,-0.32859 -0.33849,-0.33849 -0.3385,-0.3385 -0.362477,0.12624 c -0.24848,0.0865 -0.53994,0.13377 -0.9269,0.1502 -0.7487,0.0318 -1.10283,-0.0925 -1.55674,-0.54643 -0.45407,-0.45407 -0.57828,-0.8081 -0.54617,-1.55673 0.017,-0.39581 0.0628,-0.67215 0.1534,-0.92494 l 0.12919,-0.3605 -10.589001,-10.58972 c -5.82395,-5.82436 -10.69122,-10.73383 -10.81617,-10.90995 l -0.22717,-0.32022 v -2.31856 c 0,-1.27521 0.0135,-2.31856 0.0301,-2.31856 0.0166,0 0.15418,0.0629 0.30584,0.13973 0.76376,0.38703 1.90774,0.77791 2.65301,0.90649 0.26999,0.0466 0.64392,0.16026 0.84927,0.25819 0.34224,0.16322 1.07798,0.88815 10.95309,10.79218 l 10.586198,10.6172 0.44869,-0.13634 c 0.93865,-0.28523 1.78623,-0.14354 2.33423,0.39023 0.62437,0.60816 0.76496,1.35408 0.45317,2.40434 l -0.12801,0.43123 0.31563,0.31563 0.31564,0.31564 0.4699,-0.23651 c 0.50786,-0.25561 1.00663,-0.3869 1.24377,-0.32738 0.22499,0.0565 0.48054,0.29886 0.55594,0.52731 0.0918,0.27816 -0.007,0.70084 -0.30367,1.30407 l -0.23023,0.46757 0.20898,0.20898 0.20898,0.20898 3.40062,-3.39144 c 2.16798,-2.16212 3.47567,-3.42539 3.60765,-3.4851 0.56938,-0.25761 1.1859,-0.14457 1.62919,0.29873 0.41818,0.41818 0.54313,0.94339 0.35768,1.50344 -0.0827,0.24964 -0.34892,0.53588 -2.5963,2.79121 l -2.50418,2.51304 0.53649,0.53425 0.53648,0.53426 2.04878,-2.0482 2.04877,-2.0482 0.32721,0.17213 c 0.25433,0.13378 0.39822,0.17184 0.64603,0.17088 0.31931,-0.001 0.72555,-0.14092 0.91899,-0.31599 0.16017,-0.14495 0.17715,0.0141 0.0261,0.2447 -0.31464,0.48039 -0.31543,1.11987 -0.002,1.54483 l 0.14004,0.18982 -2.06178,2.06234 -2.06178,2.06234 0.62129,0.61936 0.62128,0.61935 2.49761,-2.49431 c 1.70503,-1.70277 2.56421,-2.52195 2.70747,-2.58142 0.28859,-0.1198 0.8081,-0.10937 1.09748,0.022 0.49785,0.22605 0.86501,0.74558 0.91116,1.28933 0.0531,0.62509 0.16807,0.48903 -3.64333,4.3102 l -3.47021,3.4791 0.091,0.36272 c 0.22474,0.89615 -0.002,1.69856 -0.68561,2.42289 -0.42481,0.45031 -0.967,0.75215 -1.50943,0.84028 -0.42339,0.0688 -0.53499,0.0654 -0.9736,-0.0299 z"
         id="path2"
         sodipodi:nodetypes="cscccscscscccccscsccccsssscsscsscssscssscccsssccccssssscccccscssscccccssssscscscc" /></g></g></svg>
