<?xml version="1.0" encoding="UTF-8" standalone="no"?>
<svg
   width="2519.7358"
   height="2173.6487"
   viewBox="0 0 2519.7358 2173.6487"
   version="1.1"
   id="svg2"
   sodipodi:docname="maticas-tech-logo-color-2.svg"
   inkscape:version="1.3.2 (091e20ef0f, 2023-11-25, custom)"
   xmlns:inkscape="http://www.inkscape.org/namespaces/inkscape"
   xmlns:sodipodi="http://sodipodi.sourceforge.net/DTD/sodipodi-0.dtd"
   xmlns:xlink="http://www.w3.org/1999/xlink"
   xmlns="http://www.w3.org/2000/svg"
   xmlns:svg="http://www.w3.org/2000/svg">
  <defs
     id="defs2">
    <linearGradient
       id="linearGradient5"
       inkscape:collect="always">
      <stop
         style="stop-color:#afc155;stop-opacity:1;"
         offset="0"
         id="stop6" />
      <stop
         style="stop-color:#148b33;stop-opacity:1;"
         offset="1"
         id="stop7" />
    </linearGradient>
    <linearGradient
       inkscape:collect="always"
       xlink:href="#linearGradient5"
       id="linearGradient7"
       x1="1828.9149"
       y1="-294.98428"
       x2="1989.7336"
       y2="-294.98428"
       gradientUnits="userSpaceOnUse"
       gradientTransform="translate(-3195.62,269.88144)" />
  </defs>
  <sodipodi:namedview
     id="namedview2"
     pagecolor="#ffffff"
     bordercolor="#000000"
     borderopacity="0.25"
     inkscape:showpageshadow="2"
     inkscape:pageopacity="0.0"
     inkscape:pagecheckerboard="0"
     inkscape:deskcolor="#d1d1d1"
     inkscape:zoom="0.069789487"
     inkscape:cx="2937.4052"
     inkscape:cy="2478.8834"
     inkscape:window-width="1322"
     inkscape:window-height="740"
     inkscape:window-x="0"
     inkscape:window-y="0"
     inkscape:window-maximized="1"
     inkscape:current-layer="svg2" />
  <path
     d="m 201.62603,30.073122 c -4.327,1.387 -9.952,7.744 -10.786,12.188 -1.135,6.05 0.341,10.609 4.914,15.182 5.718,5.718 11.49,6.697 18.635,3.161 l 4.951,-2.45 8.778,4.927 c 4.827,2.71 14.627,8.023 21.777,11.808 12.692,6.718 13.119,7.054 18,14.145 12.207,17.732998 22.247,34.310998 21.146,34.916998 -0.63,0.347 -9.512,2.948 -19.736,5.78 l -18.591,5.15 -20.736,-4.53 c -11.405,-2.491 -20.865,-4.53 -21.024,-4.53 -0.158,0 -1.056,-2.012 -1.995,-4.472 -4.58,-11.991 -18.851,-14.795 -27.749,-5.451 -6.671,7.006 -6.182,16.648 1.181,23.301 6.877,6.213 15.384,6.078 22.363,-0.355 l 4.179,-3.852 21.717,5.575 21.717,5.574 27.769,-7.66 c 15.273,-4.213 28.291,-7.66 28.928,-7.66 2.424,0 27.841,49.393 28.98,56.318 0.87,5.286 3.168,6.385 14.478,6.928 l 9.626,0.462 15.725,-29.856 c 14.065,-26.704 16.161,-30.149 19.857,-32.631 7.91,-5.313 10.484,-13.62 6.76,-21.82 -2.522,-5.553 -7.131,-8.657 -13.661,-9.198 -11.925,-0.989 -21.007,10.302 -17.192,21.373 1.376,3.994 1.342,4.112 -6.902,23.969 -4.556,10.975 -8.42,20.324 -8.586,20.776 -0.165,0.451 -17.048,-20.5 -37.516,-46.558 l -37.214,-47.376998 -28.1,-12.998 -28.099,-12.998 -1.76,-5.197 c -2.139,-6.321 -4.326,-8.906 -9.565,-11.312 -4.439,-2.039 -7.398,-2.19 -12.269,-0.629 m 0.224,10.203 c -4.613,4.612 -2.411,11.967 4.18,13.961 4.881,1.476 11.273,-4.859 9.802,-9.716 -2.016,-6.655 -9.347,-8.881 -13.982,-4.245 m 484.849,15.501 c -1.757,1.072 -3.935,3.078 -4.84,4.458 -2.263,3.454 -2.974,9.94 -1.485,13.535 1.145,2.764 0.648,4.464 -6.617,22.673 -7.103,17.802998 -8.141,19.803998 -10.858,20.924998 -1.652,0.682 -16.713,6.077 -33.467,11.988 l -30.464,10.748 -17.036,16.04 c -17.252,16.242 -31.348,28.695 -32.44,28.656 -0.982,-0.036 -8.233,-30.385 -8.829,-36.956 -0.475,-5.237 -0.198,-6.744 1.983,-10.805 1.394,-2.595 3.727,-8.093 5.186,-12.218 1.458,-4.125 3.249,-7.958 3.981,-8.518 4.94,-3.782 6.874,-12.453 4.203,-18.845998 -2.459,-5.887 -10.086,-9.893 -15.539,-8.162 -3.177,1.008 -8.133,5.531 -9.245,8.437 -1.338,3.493998 -1.264,10.421998 0.139,13.042998 0.931,1.741 0.45,4.529 -2.617,15.14 l -3.758,13.005 4.826,29.966 c 5.082,31.549 5.072,31.306 1.933,44.522 -0.395,1.665 1.583,3.891 9.778,11 16.022,13.902 14.11,12.837 18.782,10.454 2.2,-1.123 4.54,-2.041 5.2,-2.041 0.66,0 20.928,11.532 45.04,25.627 29.002,16.954 43.847,26.177 43.862,27.25 0.012,0.893 0.886,3.526 1.942,5.852 3.711,8.176 13.705,10.944 20.095,5.568 5.921,-4.982 7.327,-11.647 4.003,-18.969 -3.192,-7.029 -10.787,-10.108 -17.129,-6.945 -1.782,0.889 -3.613,1.617 -4.068,1.617 -0.725,0 -96.568,-58.479 -97.865,-59.712 -0.275,-0.262 13,-13.659 29.5,-29.773 l 30,-29.298 21,-6.712 21,-6.712 30.881,9.906 30.881,9.905 1.929,5.173 c 4.658,12.486 18.668,13.557 24.677,1.887 3.207,-6.227 2.382,-12.329 -2.367,-17.511 -3.141,-3.428 -3.718,-3.653 -9.358,-3.653 -5.299,0 -6.378,0.351 -9.102,2.96 l -3.09,2.961 -23.225,-9.36 c -12.774,-5.149 -24.711,-10.102 -26.527,-11.009 l -3.3,-1.647 31.768,-14.056 31.768,-14.055 3.033,1.849 c 9.018,5.5 19.884,-1.682 19.884,-13.142998 0,-15.903 -18.567,-20.57 -25.896,-6.509 -1.891,3.627 -3.129,4.398 -16.5,10.272 -18.236,8.010998 -36.991,15.535998 -37.486,15.039998 -0.209,-0.209 2.844,-6.054 6.784,-12.990998 6.152,-10.83 7.692,-12.844 10.904,-14.262 5.149,-2.271 8.271,-7.578 8.271,-14.059 0,-11.208 -11.032,-18.079 -20.125,-12.535 m 4.547,6.257 c -5.721,1.915 -5.914,11.07 -0.287,13.634 6.46,2.943 12.24,-5.399 7.967,-11.5 -1.829,-2.61 -4.25,-3.283 -7.68,-2.134 m 51.143,24.521 c -3.626,4.611 -0.404,12.266 5.162,12.266 3.006,0 6.844,-4.461 6.844,-7.955 0,-6.668 -7.916,-9.51 -12.006,-4.311 m -202.994,12.266 c -1.238,1.237998 -2,3.332998 -2,5.499998 0,8.071 9.43,10.464 12.496,3.171 3.144,-7.477 -4.979,-14.187998 -10.496,-8.670998 m -154.97,11.254998 c -9.888,5.1 -3.002,19.125 7.425,15.124 1.938,-0.744 4.545,-5.489 4.545,-8.274 0,-2.673 -3.905,-6.899 -7,-7.577 -1.375,-0.301 -3.611,0.026 -4.97,0.727 m -198.575,11.2 c -5.807,5.806 -0.471,15.806 7.5,14.055 6.672,-1.466 8.826,-9.721 3.689,-14.14 -3.616,-3.11 -8.028,-3.077 -11.189,0.085 m 550.866,32.744 c -3.261,1.562 -4.849,6.112 -3.375,9.671 2.23,5.384 9.38,6.126 11.993,1.244 3.414,-6.38 -2.486,-13.853 -8.618,-10.915 m -276.356,96.002 c -13.456,14.856 -25.428,28.21 -26.606,29.673 l -2.141,2.662 3.767,2.708 3.766,2.707 25.875,-29.152 c 14.231,-16.033 26.177,-29.645 26.546,-30.248 0.386,-0.629 -0.908,-2.005 -3.034,-3.229 l -3.707,-2.134 -24.466,27.013 m -259.506,-14.321 c -11.427,5.19 -13.865,17.977 -5.1,26.742 5.544,5.545 11.036,6.554 18.406,3.384 l 5.061,-2.177 20.578,5.195 20.578,5.195 29.166,-3.201 c 16.042,-1.761 29.759,-3.429 30.482,-3.706 1.535,-0.589 2.678,-5.73 2.202,-9.904 -0.392,-3.436 3.38,-3.499 -35.528,0.588 l -27.196,2.856 -17.252,-5.426 c -9.489,-2.984 -17.353,-5.426 -17.476,-5.426 -0.124,0 -0.735,-1.547 -1.359,-3.438 -1.65,-4.997 -4.803,-8.558 -9.442,-10.666 -5.129,-2.329 -8.021,-2.333 -13.12,-0.016 m 0.996,9.575 c -5.29,5.289 -1.507,13.945 6.095,13.945 4.152,0 7.14,-2.599 8.014,-6.971 0.483,-2.414 0.045,-3.74 -2.064,-6.247 -3.437,-4.084 -8.39,-4.383 -12.045,-0.727 m 164.629,-0.303 c -2.32,0.87 -1.964,1.37 9,12.627 7.895,8.106 12.11,11.721 13.666,11.721 1.237,0 2.271,-0.358 2.297,-0.795 0.025,-0.437 -5.037,-6.119 -11.25,-12.627 -10.283,-10.77 -11.514,-11.751 -13.713,-10.926 m 297.723,34.598 c -2.364,2.752 -2.807,4.952 -1.66,8.243 2.722,7.808 12.853,5.596 12.853,-2.807 0,-6.016 -7.547,-9.681 -11.193,-5.436 m -263.462,31.061 c -1.047,1.684 0.844,3.042 20.318,14.589 17.362,10.296 21.746,12.505 22.905,11.544 0.787,-0.654 1.432,-1.702 1.432,-2.33 0,-0.996 -39.547,-24.667 -42.413,-25.387 -0.598,-0.15 -1.607,0.563 -2.242,1.584 m -67.636,42.449 -35.791,33.24 4.079,3.821 c 2.242,2.101 4.458,3.676 4.922,3.5 1.456,-0.553 71.081,-66.922 71.081,-67.757 0,-0.745 -7.091,-6.075 -8.054,-6.054 -0.245,0.005 -16.552,14.968 -36.237,33.25 m -131.468,-24.265 c -12.545,7.648 -7.329,26.988 7.283,27.001 3.508,0.004 5.66,1.211 16.769,9.409 l 12.745,9.406 -42.769,35.245 c -23.523,19.384 -43.328,35.679 -44.012,36.211 -0.684,0.531 -8.683,1.431 -17.776,2 -15.96,0.997 -16.61,0.963 -18.757,-0.992 -7.529,-6.855 -18.512005,-5.297 -23.458005,3.329 -8.974,15.654 12.283005,30.087 24.056005,16.333 l 3.438,-4.017 9.87,-0.847 c 5.429,-0.466 10.058,-0.673 10.287,-0.46 0.403,0.374 -8.093,17.231 -39.757005,78.887 -12.758,24.842 -15.236,29.039 -17.277,29.27 -6.787,0.768 -8.795,1.515 -11.696,4.352 -8.57,8.378 -4.952,21.471 6.915,25.027 5.071,1.519 11.911,-0.956 15.135,-5.477 2.235,-3.133 2.589,-6.993 1.573,-17.172 -0.221,-2.207 2.068,-7.493 8.660005,-20 4.928,-9.35 9.071,-16.325 9.207,-15.5 0.136,0.825 0.969,21.402 1.851,45.727 l 1.604,44.227 -3.975,3.782 c -8.671,8.248 -5.819,21.58 5.407,25.285 4.853,1.602 9.795,0.481 13.945,-3.163 6.882,-6.043 6.909,-15.437 0.064,-22.095 l -3.355,-3.263 -0.618,-40.5 c -0.34,-22.275 -0.869,-48.825 -1.174,-59 l -0.556,-18.5 16.315,-27.567 16.315,-27.566 13.5,-11.963 c 46.042,-40.801 56.998,-50.35 56.985,-49.668 -0.008,0.42 -3.383,7.048 -7.5,14.728 -4.117,7.68 -7.485,14.894 -7.485,16.03 0,1.137 6.075,39.548 13.5,85.358 7.425,45.81 13.5,84.148 13.5,85.196 0,1.047 -0.898,3.377 -1.996,5.178 -4.718,7.738 -1.383,17.599 7.147,21.135 15.28,6.332 27.812,-13.284 15.432,-24.154 -1.864,-1.637 -3.887,-3.142 -4.495,-3.344 -0.869,-0.29 -30.088,-167.734 -30.088,-172.42 0,-0.6 6.737,-8.933 14.971,-18.517 l 14.971,-17.426 0.029,-10.024 0.029,-10.025 -15.878,-12.294 c -15.046,-11.651 -15.905,-12.502 -16.409,-16.264 -0.293,-2.183 -1.273,-5.099 -2.177,-6.479 -4.08,-6.226 -13.845,-8.352 -20.295,-4.419 m 3.394,7.078 c -5.081,3.996 -2.366,12.927 3.931,12.927 8.268,0 11.166,-10.523 3.819,-13.87 -3.471,-1.582 -4.736,-1.428 -7.75,0.943 m 246.469,31.177 c -3.361,8.388 -6.109,15.712 -6.107,16.276 0,0.564 6.528,3.183 14.503,5.82 10.986,3.633 14.502,5.202 14.51,6.475 0.014,2.265 -12.924,109.07 -13.564,111.972 -0.278,1.261 -1.28,2.565 -2.226,2.898 -6.787,2.387 -12.026,10.955 -10.909,17.841 0.85,5.232 4.373,10.266 8.75,12.499 10.442,5.327 22.748,-0.919 24.628,-12.499 0.721,-4.446 -1.958,-11.812 -5.233,-14.388 l -2.386,-1.877 6.947,-41.383 c 3.821,-22.761 7.174,-42.284 7.452,-43.384 0.29,-1.15 4.166,-4.289 9.117,-7.385 l 8.611,-5.385 3.336,3.385 c 1.834,1.862 14.288,15.636 27.674,30.61 l 24.338,27.225 -2.204,32.275 c -1.213,17.751 -2.247,33.175 -2.299,34.275 -0.061,1.313 -1.462,2.631 -4.076,3.836 -8.108,3.739 -11.341,14.666 -6.754,22.827 6.046,10.757 21.558,11.238 28.535,0.885 3.268,-4.85 3.153,-13.443 -0.247,-18.453 -1.375,-2.026 -2.5,-4.184 -2.5,-4.796 0,-2.973 12.504,-52.686 13.09,-52.042 2.382,2.621 38.91,80.003 38.91,82.43 0,0.398 -1.093,2.334 -2.428,4.302 -3.239,4.773 -3.929,8.47 -2.543,13.617 2.33,8.656 11.573,14.155 19.984,11.89 11.753,-3.164 16.381,-15.757 9.573,-26.046 -1.99,-3.006 -2.586,-5.168 -2.586,-9.376 0,-5.349 -0.526,-6.354 -24.196,-46.271 l -24.196,-40.803 -22.671,-28 c -12.469,-15.4 -22.561,-28.132 -22.428,-28.293 0.324,-0.391 55.679,2.758 57.115,3.249 0.618,0.211 1.423,1.982 1.79,3.935 1.947,10.381 15.913,16.233 24.664,10.335 10.757,-7.249 10.757,-21.203 0,-28.452 -5.354,-3.609 -13.755,-2.814 -20.277,1.919 -1.408,1.021 -5.111,0.172 -21.567,-4.947 l -19.867,-6.18 -17.433,5.515 c -10.115,3.199 -17.951,5.179 -18.666,4.717 -0.677,-0.439 -8.469,-10.473 -17.314,-22.298 l -16.082,-21.5 21.814,-0.644 c 53.754,-1.587 74.314,-1.065 74.314,1.887 0,3.029 4.353,9.087 8.004,11.139 14.111,7.931 29.87,-6.28 23.602,-21.282 -3.994,-9.561 -17.957,-12.619 -25.877,-5.668 l -3.229,2.833 -11.883,-4.366 -11.882,-4.367 -50.618,1.956 -50.617,1.955 -10,-2.954 c -5.5,-1.625 -10.064,-2.962 -10.143,-2.972 -0.078,-0.009 -2.892,6.845 -6.253,15.233 m 162.152,-1.715 c -3.313,1.392 -5.774,6.257 -4.769,9.425 1.924,6.062 9.619,8.025 14.058,3.585 3.003,-3.002 3.194,-7.336 0.478,-10.789 -2.41,-3.064 -5.884,-3.854 -9.767,-2.221 m 340.768,47.65 c -5.249,3.567 -8.024,8.308 -8.025,13.713 0,5.638 -31.557,127.251 -33.29,128.301 -20.367,12.329 -86.286,51.416 -86.482,51.279 -0.151,-0.105 1.092,-27.889 2.761,-61.741 2.303,-46.699 3.394,-62.408 4.524,-65.111 2.077,-4.972 1.861,-8.607 -0.815,-13.666 -2.699,-5.104 -9.023,-8.96 -14.697,-8.96 -10.991,0 -19.689,11.797 -15.95,21.631 0.777,2.043 -0.023,19.809 -3.076,68.315 -2.269,36.055 -4.461,66.202 -4.871,66.994 -0.519,1.003 -13.777,3.914 -43.661,9.588 l -42.915,8.148 3.986,2.514 c 15.058,9.493 27.55,16.806 28.67,16.784 0.724,-0.015 30.075,-6.469 65.224,-14.344 l 63.908,-14.317 38.592,16.913 c 38.074,16.686 38.628,16.971 41.188,21.156 3.409,5.575 8.42,7.989 15.385,7.411 6.481,-0.537 11.1,-3.656 13.615,-9.194 2.466,-5.432 2.377,-9.241 -0.345,-14.633 -3.789,-7.507 -12.747,-10.844 -21.179,-7.89 -2.883,1.01 -5.086,0.03 -36.071,-16.051 -18.15,-9.421 -33.36,-17.487 -33.799,-17.926 -0.44,-0.438 21.229,-14.562 48.152,-31.385 l 48.951,-30.588 26.50497,-5.016 26.505,-5.015 23.68,10.329 c 20.226,8.823 24.129,10.876 26.768,14.077 7.246,8.791 20.352,8.467 26.853,-0.663 3.452,-4.848 3.783,-13.277 0.7,-17.814 -4.181,-6.153 -8.219,-8.123 -16.269,-7.938 -6.447,0.149 -10.192,-0.834 -44.046,-11.563 -20.35,-6.449 -37.357,-12.06 -37.793,-12.467 -1.058,-0.99 53.327,-51.373 58.591,-54.279 6.04,-3.335 8.702,-7.829 8.702,-14.693 0,-4.364 -0.565,-6.451 -2.529,-9.341 -5.727,-8.428 -18.341,-9.967 -24.599,-3.002 -5.157,5.741 -105.28897,106.175 -105.57297,105.892 -0.163,-0.164 6.003,-22.227 13.702,-49.031 8.242,-28.693 13.999,-50.496 13.999,-53.02 0,-8.297 -6.577,-14.715 -15.737,-15.356 -4.819,-0.337 -6.332,-0.016 -9.239,1.959 m 2.431,8.27 c -4.476,4.475 -2.529,11.635 3.767,13.854 2.852,1.005 7.735,-1.326 9.36,-4.467 4.21,-8.142 -6.625,-15.89 -13.127,-9.387 m -332.955,2.7 c -3.247,1.776 -4.5,3.993 -4.5,7.964 0,7.071 8.497,10.475 13.545,5.426 4.047,-4.046 3.24,-10.57 -1.617,-13.082 -3.337,-1.726 -4.731,-1.784 -7.428,-0.308 m 438.95497,4.3 c -5.174,5.173 -1.601,14.545 5.545,14.545 4.355,0 8,-3.873 8,-8.5 0,-4.627 -3.645,-8.5 -8,-8.5 -1.948,0 -3.998,0.907 -5.545,2.455 m -960.95497,22.7 c -3.048005,1.667 -4.500005,3.938 -4.500005,7.036 0,6.514 8.842005,9.369 12.927005,4.174 3.366,-4.278 2.37,-8.549 -2.611,-11.202 -2.647,-1.41 -3.252,-1.41 -5.816,-0.008 m 710.423,16.768 c -1.762,1.762 -2.923,3.977 -2.923,5.577 0,3.177 4.932,8.5 7.876,8.5 5.067,0 9.124,-4.057 9.124,-9.124 0,-2.944 -5.323,-7.876 -8.5,-7.876 -1.6,0 -3.815,1.161 -5.577,2.923 m -352.883,52.883 c -3.849,3.849 -4.069,8.256 -0.585,11.739 3.483,3.484 7.89,3.264 11.739,-0.585 2.555,-2.556 2.938,-3.551 2.399,-6.247 -0.815,-4.073 -3.233,-6.491 -7.306,-7.306 -2.696,-0.539 -3.691,-0.156 -6.247,2.399 m 636.31597,17.564 c -7.262,6.246 0.53,17.957 8.96,13.467 3.205,-1.708 4.62,-3.955 4.62,-7.337 0,-3.382 -1.415,-5.629 -4.62,-7.337 -3.308,-1.762 -5.917,-1.41 -8.96,1.207 m -540.72097,16.703 c -1.948,1.532 -2.635,2.983 -2.635,5.565 0,4.71 1.364,6.945 5.016,8.218 5.898,2.056 10.897,-1.611 10.952,-8.033 0.038,-4.32 -3.531,-7.823 -7.968,-7.823 -1.502,0 -3.916,0.933 -5.365,2.073 m -476.741005,23.051 c -2.49,0.904 -4.894,4.485 -4.894,7.288 0,0.725 0.933,2.504 2.073,3.953 4.115,5.231 12.927,2.331 12.927,-4.254 0,-5.404 -4.981,-8.848 -10.106,-6.987 m 550.561005,7.331 c -5.173,5.172 -1.435,13.545 6.045,13.545 5.325,0 8.936,-3.91 8.149,-8.823 -1.124,-7.027 -9.202,-9.715 -14.194,-4.722 m -382.967,20.558 c -2.461,2.719 -2.322,7.597 0.29,10.209 2.612,2.612 7.49,2.751 10.209,0.29 2.621,-2.372 2.726,-8.557 0.184,-10.857 -2.575,-2.33 -8.427,-2.134 -10.683,0.358 m -129.488,34.987 c -1.203,1.203 -2,3.333 -2,5.345 0,6.882 8.115,9.547 12.731,4.181 2.637,-3.066 2.473,-6.517 -0.464,-9.776 -2.16,-2.397 -7.756,-2.261 -10.267,0.25 m 842.04,4.806 c -5.695,5.695 -2.507,14.194 5.326,14.194 4.777,0 9.092,-4.962 8.198,-9.429 -0.787,-3.937 -3.246,-6.357 -7.277,-7.164 -2.696,-0.539 -3.691,-0.156 -6.247,2.399 m -479.34,113.617 c -37.788,34.801 -44.307,40.413 -47.5,40.886 -2.035,0.302 -18.876,2.217 -37.424,4.254 l -33.724,3.706 -5.126,-2.206 c -6.457,-2.777 -11.671,-2.104 -16.493,2.13 -5.787,5.081 -6.743,13.687 -2.23,20.072 2.746,3.885 6.866,5.735 12.77,5.735 4.481,0 5.564,-0.447 9.299,-3.839 l 4.228,-3.84 34,-1.569 c 18.7,-0.863 34.147,-1.425 34.327,-1.25 0.18,0.176 -10.62,20.908 -24,46.073 l -24.327,45.753 -17.35,15.086 c -9.543,8.297 -18.543,15.577 -20,16.177 -1.458,0.6 -12.019,2.126 -23.471,3.393 -18.105,2.001 -21.52,2.134 -26.178,1.016 -7.858,-1.885 -12.266,-0.852 -16.751,3.927 -3.642,3.88 -4.283,5.941 -3.757,12.073 0.98,11.403 15.099,16.842 24.087,9.279 2.565,-2.158 8.522,-3.761 38.658,-10.401 19.593,-4.317 35.751,-7.722 35.907,-7.567 0.714,0.715 -19.837,64.93798 -22.169,69.28098 -2.12,3.946 -2.525,5.757 -2.064,9.243 1.074,8.128 6.938,13.17 15.306,13.161 6.837,-0.01 14.27,-6.772 14.278,-12.996 0,-3.631 33.384,-127.01498 34.14,-126.19198 0.349,0.38 5.447,20.245 11.328,44.144 5.882,23.898 11.326,44.675 12.1,46.17098 3.033,5.866 11.291,9.07 17.821,6.915 4.701,-1.552 9.25,-6.917 10.093,-11.90598 0.538,-3.185 0.135,-5.244 -1.923,-9.83 -1.431,-3.191 -9.277,-30.026 -17.435,-59.634 l -14.833,-53.832 21.925,-39.168 c 12.058,-21.542 22.24,-39.492 22.626,-39.888 1.119,-1.148 50.807,96.085 51.639,101.051 2.014,12.017 16.186,17.068 24.881,8.867 6.892,-6.499 6.677,-16.094 -0.508,-22.684 -0.908,-0.833 -13.593,-25.715 -28.19,-55.295 l -26.54,-53.78 29.891,-25.72 29.89,-25.719 -6.201,-0.633 c -3.41,-0.348 -10.925,-0.666 -16.7,-0.707 l -10.5,-0.073 -43.8,40.336 m -134.964,53.827 c -5.606,4.257 -2.669,13.686 4.264,13.686 6.986,0 10.285,-9.522 4.663,-13.459 -2.577,-1.805 -6.71,-1.91 -8.927,-0.227 m 593.757,69.512 4.956,5.263 -4.474,4.342 c -37.672,36.556 -62.104,59.633 -63.136,59.633 -0.705,0 -3.994,-2.581 -7.31,-5.735 -3.316,-3.155 59.333,59.50798 139.21997,139.24998 l 145.249,144.985 -2.703,7.5 c -2.241,6.214 -2.711,9.214 -2.744,17.5 -0.035,8.771 0.282,10.676 2.58,15.5 3.885,8.155 9.006,13.45 16.643,17.208 6.335,3.117 7.25,3.287 17.208,3.205 8.618,-0.072 11.806,-0.551 17.648,-2.65 l 7.131,-2.563 5.654,5.714 5.654,5.714 -3.257,6.936 c -2.395,5.101 -3.341,8.656 -3.574,13.436 -0.372,7.596 0.818,10.439 5.777,13.808 5.675,3.855 14.052,2.612 29.485,-4.374 0.55,-0.249 15.159,13.714 32.465,31.028 l 31.465,31.48 -2.79,2.912 -2.789,2.911 3.074,5.449 c 4.89,8.665 4.069,19.457 -2.131,28.008 -0.937,1.292 -0.963,2.009 -0.106,2.866 0.857,0.857 1.976,0.524 4.477,-1.334 8.371,-6.219 19.607,-6.324 27.825,-0.261 l 3.408,2.514 3.078,-2.984 3.078,-2.983 25.473,25.525 c 22.566,22.613 26.289,25.932 32.627,29.085 12.044,5.992 27.318,5.838 40.123,-0.405 11.014,-5.37 21.157,-16.927 25.219,-28.732 2.44,-7.095 2.687,-19.937 0.52,-27.104 l -1.485,-4.909 61.389,-61.5 c 33.763,-33.825 62.2,-63.075 63.192,-65 2.626,-5.094 2.444,-14.289 -0.396,-20.1 -2.719,-5.56 -8.297,-11.343 -13.716,-14.218 -5.289,-2.806 -16.407,-2.962 -21.5,-0.301 -1.925,1.006 -23.187,21.462 -47.249,45.457 l -43.748,43.629 -10.508,-10.472 -10.508,-10.472 36.574,-36.584 c 30.541,-30.549 36.333,-36.782 35.116,-37.792 -0.802,-0.666 -2.461,-3.542 -3.687,-6.392 -3.163,-7.352 -2.429,-16.26 1.837,-22.312 2.6,-3.689 2.829,-4.484 1.587,-5.515 -1.146,-0.951 -1.815,-0.885 -3.183,0.313 -7.598,6.66 -19.365,7.103 -28.62,1.078 l -3.889,-2.531 -36.353,36.343 -36.353,36.343 -9.006,-8.964 -9.005,-8.964 43.44,-43.523 c 32.587,-32.65 43.949,-44.647 45.476,-48.023 2.669,-5.902 2.75,-15.927 0.173,-21.601 -2.382,-5.244 -8.249,-11.111 -13.493,-13.493 -5.536,-2.514 -15.708,-2.495 -21.292,0.041 -2.94,1.335 -13.383,11.186 -35,33.019 -16.945,17.114 -43.995,43.989 -60.111,59.722 l -29.301,28.604 -3.424,-3.318 -3.423,-3.318 2.999,-5.242 c 7.018,-12.267 8.781,-23.402 4.671,-29.502 -3.284,-4.873 -6.146,-6.043 -13.876,-5.675 -5.516,0.263 -8.21,1.091 -15.735,4.834 l -9.079,4.517 -5.406,-5.544 -5.406,-5.544 2.051,-5.5 c 1.601,-4.294 2.071,-8.022 2.141,-17 0.081,-10.403 -0.157,-12.025 -2.504,-17 -3.312,-7.021 -9.899,-13.604 -16.906,-16.895 -8.039,-3.775 -20.548,-4.103 -31.5,-0.826 l -8,2.395 -143.482,-143.087 C 997.49803,941.71012 935.16203,879.68912 937.88803,882.58312 m -399.264,2.907 c -2.157,0.868 -4.318,6.127 -3.636,8.846 2.092,8.335 14.407,6.675 14.407,-1.942 0,-5.284 -5.706,-8.941 -10.771,-6.904 m -253.594,73.404 c -3.302,2.597 -3.613,7.949 -0.635,10.927 2.978,2.978 8.33,2.667 10.927,-0.635 2.365,-3.006 2.524,-4.281 0.963,-7.708 -1.084,-2.377 -4.658,-4.657 -7.302,-4.657 -0.725,0 -2.504,0.933 -3.953,2.073 m 160.754,29.269 c -5.445,4.684 -2.541,12.65798 4.611,12.65798 4.524,0 7.333,-2.74698 7.333,-7.17098 0,-3.497 -4.057,-7.829 -7.333,-7.829 -1.039,0 -3.114,1.054 -4.611,2.342 m -85.754,41.73098 c -3.302,2.597 -3.613,7.949 -0.635,10.927 2.978,2.978 8.33,2.667 10.927,-0.635 2.365,-3.006 2.524,-4.281 0.963,-7.708 -1.084,-2.377 -4.658,-4.657 -7.302,-4.657 -0.725,0 -2.504,0.933 -3.953,2.073"
     stroke="none"
     fill="#afc155"
     fill-rule="evenodd"
     id="path1" />
  <path
     d="m 164.39503,0.75112234 c -4.184,0.83599996 -8.038,2.80799996 -9.744,4.98299996 -1.838,2.344 -5.022,13.3859997 -6.701,23.2369997 -3.355,19.681 -4.968,40.466 -4.994,64.35 -0.025,22.688998 0.149,24.982998 3.189,41.999998 8.408,47.066 11.243,59.956 16.728,76.066 7.577,22.252 20.59,54.789 27.095,67.743 5.624,11.201 6.6,15.993 4.142,20.338 -0.668,1.18 -6.39,5.84 -12.715,10.354 -6.325,4.514 -15.775,11.607 -21,15.762 -12.498,9.937 -38.301,35.777 -45.172,45.237 -28.906005,39.794 -72.480005,126.861 -94.337005,188.5 -14.7489998,41.593 -20.08599978,69.223 -20.86899978,108.044 -0.28,13.877 2.13999998,14.574 65.81299978,18.973 38.741005,2.677 70.343005,3.164 91.261005,1.408 16.094,-1.352 38.081,-5.041 49.804,-8.358 19.797,-5.6 60.302,-28.784 84.16,-48.171 17.472,-14.198 31.319,-31.031 43.313,-52.653 14.601,-26.323 26.871,-43.922 36.927,-52.963 4.991,-4.487 10.622,-7.78 13.305,-7.78 2.434,0 7.284,6.052 16.574,20.687 13.794,21.727 24.024,33.96 34.304,41.021 11.038,7.581 44.215,22.346 68.917,30.671 18.259,6.153 31.124,9.274 47.791,11.592 18.065,2.513 22.138,3.53 31.148,7.778 8.349,3.937 18.629,13.449 27.831,25.751 5.813,7.771 7.216,11.506 7.224,19.227 0.01,7.248 -1.71,8.216 -16.714,9.415 -14.893,1.19 -23.391,2.953 -40.28,8.356 -18.656,5.967 -23.417,6.747 -30.124,4.935 -21.372,-5.772 -59.561,-8.182 -79.035,-4.988 -5.687,0.933 -15.066,3.306 -20.841,5.274 -27.26,9.287 -64.625,26.887 -83.519,39.34 -21.624,14.252 -57.905,55.874 -65.94,75.647 -4.972,12.236 -9.627,34.854 -13.232,64.294 -2.511,20.503 -2.566,76.484 -0.092,92.694 5.593,36.63498 22.214,80.25098 45.583,119.61698 4.183,7.046 9.929,15.368 12.768,18.492 l 5.163,5.681 11.384,-3.834 c 24.307,-8.186 77.507,-30.03 101.385,-41.629 21.362,-10.376 47.302,-28.311 70,-48.397 41.169,-36.43298 58.608,-57.05398 68.846,-81.40798 5.167,-12.293 14.699,-42.022 18.184,-56.716 6.228,-26.259 5.685,-52.894 -1.673,-82 -1.112,-4.4 -6.016,-20.177 -10.897,-35.06 -4.882,-14.883 -9.164,-28.864 -9.517,-31.07 -0.561,-3.51 -0.339,-4.208 1.785,-5.6 5.551,-3.637 13.008,-4.989 30.366,-5.505 19.254,-0.573 28.082,0.653 40.197,5.583 18.078,7.357 30.965,16.864 53.723,39.631 21.523,21.532 38.816,42.702 67.473,82.598 6.052,8.425 16.306,19.143 53.5,55.923 25.307,25.025 46.779,45.641 47.715,45.814 1.105,0.204 13.21,-10.777 34.5,-31.295 18.039,-17.384 32.95,-32.044 33.136,-32.577 0.186,-0.534 -22.089,-23.415 -49.5,-50.848 -55.884,-55.93 -52.975,-53.61 -71.661,-57.152 -28.426,-5.388 -70.364,-25.391 -84.677,-40.386 -3.422,-3.585 -3.5,-3.851 -3.5,-11.935 0,-8.15 0.086,-8.436 6.103,-20.194 3.356,-6.56 6.678,-13.727 7.38,-15.927 0.703,-2.2 1.724,-4.562 2.27,-5.25 1.852,-2.334 7.657,-1.262 22.468,4.148 28.909,10.559 47.308,14.927 70.622,16.767 47.548,3.752 113.707,-11.476 165.14297,-38.01 30.66,-15.817 51.055,-30.538 73.543,-53.085 17.213,-17.258 26.073,-28.909 33.892,-44.57 8.729,-17.481 11.527,-28.54 13.223,-52.253 3.94,-55.085 -13.933,-138.704 -34.389,-160.897 -7.169,-7.777 -7.116,-7.768 -28.009,-4.906 -10.035,1.375 -29.271,3.876 -42.746,5.559 -70.08797,8.752 -103.48797,16.072 -139.93597,30.666 -57.484,23.016 -129.404,76.107 -161.62,119.306 -6.88,9.225 -15.251,24.52 -17.802,32.525 -2.833,8.891 -4.749,23.611 -5.34,41.018 -0.856,25.209 1.921,48.133 8.813,72.758 l 3.016,10.776 -1.995,3.224 c -2.912,4.707 -20.577,21.724 -22.551,21.724 -8.483,0 -23.696,-20.575 -35.49,-48 -2.72,-6.325 -5.271,-12.808 -5.668,-14.406 l -0.722,-2.906 8.397,0.877 c 4.619,0.482 11.251,0.889 14.737,0.906 5.414,0.025 6.609,-0.304 8.186,-2.252 3.708,-4.581 4.307,-11.947 3.398,-41.719 -0.47,-15.4 -0.875,-50.95 -0.9,-79 -0.038,-43.611 -0.302,-52.733 -1.826,-62.962 -2.698,-18.119 -4.479,-23.915 -11.537,-37.538 -13.773,-26.587 -16.145,-31.583 -16.152,-34.025 -0.01,-2.359 0.533,-2.636 8.242,-4.229 33.677,-6.96 68.701,-27.384 89.53,-52.208 19.123,-22.792 37.513,-58.189 47.585,-91.592 9.441,-31.308 34.1,-129.749998 37.686,-150.445998 2.187,-12.626 2.992,-30.44 1.659,-36.721 -1.14,-5.372 -4.961,-9.356 -10.99,-11.458 -7.216,-2.517 -35.918,-2.34 -79.22,0.489 -18.15,1.186 -46.05,2.841 -62,3.679 -80.97,4.25 -97.853,7.78 -132.258,27.652 -10.752,6.209 -14.596,9.155 -24.609,18.859 -6.527,6.325 -20.027,20.489 -30,31.474998 -43.077,47.453 -47.942,52.706 -49.288,53.223 -2.752,1.056 -5.678,-3.399 -15.352,-23.374 -15.745,-32.511 -23.87,-43.768998 -45.493,-63.026998 -15.668,-13.955 -27.342,-22.197 -41.458,-29.267 -45.104,-22.592 -149.935,-47.5199997 -177.042,-42.09999966 m 37.231,29.32199966 c -4.327,1.387 -9.952,7.744 -10.786,12.188 -1.135,6.05 0.341,10.609 4.914,15.182 5.718,5.718 11.49,6.697 18.635,3.161 l 4.951,-2.45 8.778,4.927 c 4.827,2.71 14.627,8.023 21.777,11.808 12.692,6.718 13.119,7.054 18,14.145 12.207,17.732998 22.247,34.310998 21.146,34.916998 -0.63,0.347 -9.512,2.948 -19.736,5.78 l -18.591,5.15 -20.736,-4.53 c -11.405,-2.491 -20.865,-4.53 -21.024,-4.53 -0.158,0 -1.056,-2.012 -1.995,-4.472 -4.58,-11.991 -18.851,-14.795 -27.749,-5.451 -6.671,7.006 -6.182,16.648 1.181,23.301 6.877,6.213 15.384,6.078 22.363,-0.355 l 4.179,-3.852 21.717,5.575 21.717,5.574 27.769,-7.66 c 15.273,-4.213 28.291,-7.66 28.928,-7.66 2.424,0 27.841,49.393 28.98,56.318 0.87,5.286 3.168,6.385 14.478,6.928 l 9.626,0.462 15.725,-29.856 c 14.065,-26.704 16.161,-30.149 19.857,-32.631 7.91,-5.313 10.484,-13.62 6.76,-21.82 -2.522,-5.553 -7.131,-8.657 -13.661,-9.198 -11.925,-0.989 -21.007,10.302 -17.192,21.373 1.376,3.994 1.342,4.112 -6.902,23.969 -4.556,10.975 -8.42,20.324 -8.586,20.776 -0.165,0.451 -17.048,-20.5 -37.516,-46.558 l -37.214,-47.376998 -28.1,-12.998 -28.099,-12.998 -1.76,-5.197 c -2.139,-6.321 -4.326,-8.906 -9.565,-11.312 -4.439,-2.039 -7.398,-2.19 -12.269,-0.629 m 0.224,10.203 c -4.613,4.612 -2.411,11.967 4.18,13.961 4.881,1.476 11.273,-4.859 9.802,-9.716 -2.016,-6.655 -9.347,-8.881 -13.982,-4.245 m 484.849,15.501 c -1.757,1.072 -3.935,3.078 -4.84,4.458 -2.263,3.454 -2.974,9.94 -1.485,13.535 1.145,2.764 0.648,4.464 -6.617,22.673 -7.103,17.802998 -8.141,19.803998 -10.858,20.924998 -1.652,0.682 -16.713,6.077 -33.467,11.988 l -30.464,10.748 -17.036,16.04 c -17.252,16.242 -31.348,28.695 -32.44,28.656 -0.982,-0.036 -8.233,-30.385 -8.829,-36.956 -0.475,-5.237 -0.198,-6.744 1.983,-10.805 1.394,-2.595 3.727,-8.093 5.186,-12.218 1.458,-4.125 3.249,-7.958 3.981,-8.518 4.94,-3.782 6.874,-12.453 4.203,-18.845998 -2.459,-5.887 -10.086,-9.893 -15.539,-8.162 -3.177,1.008 -8.133,5.531 -9.245,8.437 -1.338,3.493998 -1.264,10.421998 0.139,13.042998 0.931,1.741 0.45,4.529 -2.617,15.14 l -3.758,13.005 4.826,29.966 c 5.082,31.549 5.072,31.306 1.933,44.522 -0.395,1.665 1.583,3.891 9.778,11 16.022,13.902 14.11,12.837 18.782,10.454 2.2,-1.123 4.54,-2.041 5.2,-2.041 0.66,0 20.928,11.532 45.04,25.627 29.002,16.954 43.847,26.177 43.862,27.25 0.012,0.893 0.886,3.526 1.942,5.852 3.711,8.176 13.705,10.944 20.095,5.568 5.921,-4.982 7.327,-11.647 4.003,-18.969 -3.192,-7.029 -10.787,-10.108 -17.129,-6.945 -1.782,0.889 -3.613,1.617 -4.068,1.617 -0.725,0 -96.568,-58.479 -97.865,-59.712 -0.275,-0.262 13,-13.659 29.5,-29.773 l 30,-29.298 21,-6.712 21,-6.712 30.881,9.906 30.881,9.905 1.929,5.173 c 4.658,12.486 18.668,13.557 24.677,1.887 3.207,-6.227 2.382,-12.329 -2.367,-17.511 -3.141,-3.428 -3.718,-3.653 -9.358,-3.653 -5.299,0 -6.378,0.351 -9.102,2.96 l -3.09,2.961 -23.225,-9.36 c -12.774,-5.149 -24.711,-10.102 -26.527,-11.009 l -3.3,-1.647 31.768,-14.056 31.768,-14.055 3.033,1.849 c 9.018,5.5 19.884,-1.682 19.884,-13.142998 0,-15.903 -18.567,-20.57 -25.896,-6.509 -1.891,3.627 -3.129,4.398 -16.5,10.272 -18.236,8.010998 -36.991,15.535998 -37.486,15.039998 -0.209,-0.209 2.844,-6.054 6.784,-12.990998 6.152,-10.83 7.692,-12.844 10.904,-14.262 5.149,-2.271 8.271,-7.578 8.271,-14.059 0,-11.208 -11.032,-18.079 -20.125,-12.535 m 4.547,6.257 c -5.721,1.915 -5.914,11.07 -0.287,13.634 6.46,2.943 12.24,-5.399 7.967,-11.5 -1.829,-2.61 -4.25,-3.283 -7.68,-2.134 m 51.143,24.521 c -3.626,4.611 -0.404,12.266 5.162,12.266 3.006,0 6.844,-4.461 6.844,-7.955 0,-6.668 -7.916,-9.51 -12.006,-4.311 m -202.994,12.266 c -1.238,1.237998 -2,3.332998 -2,5.499998 0,8.071 9.43,10.464 12.496,3.171 3.144,-7.477 -4.979,-14.187998 -10.496,-8.670998 m -154.97,11.254998 c -9.888,5.1 -3.002,19.125 7.425,15.124 1.938,-0.744 4.545,-5.489 4.545,-8.274 0,-2.673 -3.905,-6.899 -7,-7.577 -1.375,-0.301 -3.611,0.026 -4.97,0.727 m -198.575,11.2 c -5.807,5.806 -0.471,15.806 7.5,14.055 6.672,-1.466 8.826,-9.721 3.689,-14.14 -3.616,-3.11 -8.028,-3.077 -11.189,0.085 m 550.866,32.744 c -3.261,1.562 -4.849,6.112 -3.375,9.671 2.23,5.384 9.38,6.126 11.993,1.244 3.414,-6.38 -2.486,-13.853 -8.618,-10.915 m -276.356,96.002 c -13.456,14.856 -25.428,28.21 -26.606,29.673 l -2.141,2.662 3.767,2.708 3.766,2.707 25.875,-29.152 c 14.231,-16.033 26.177,-29.645 26.546,-30.248 0.386,-0.629 -0.908,-2.005 -3.034,-3.229 l -3.707,-2.134 -24.466,27.013 m -259.506,-14.321 c -11.427,5.19 -13.865,17.977 -5.1,26.742 5.544,5.545 11.036,6.554 18.406,3.384 l 5.061,-2.177 20.578,5.195 20.578,5.195 29.166,-3.201 c 16.042,-1.761 29.759,-3.429 30.482,-3.706 1.535,-0.589 2.678,-5.73 2.202,-9.904 -0.392,-3.436 3.38,-3.499 -35.528,0.588 l -27.196,2.856 -17.252,-5.426 c -9.489,-2.984 -17.353,-5.426 -17.476,-5.426 -0.124,0 -0.735,-1.547 -1.359,-3.438 -1.65,-4.997 -4.803,-8.558 -9.442,-10.666 -5.129,-2.329 -8.021,-2.333 -13.12,-0.016 m 0.996,9.575 c -5.29,5.289 -1.507,13.945 6.095,13.945 4.152,0 7.14,-2.599 8.014,-6.971 0.483,-2.414 0.045,-3.74 -2.064,-6.247 -3.437,-4.084 -8.39,-4.383 -12.045,-0.727 m 164.629,-0.303 c -2.32,0.87 -1.964,1.37 9,12.627 7.895,8.106 12.11,11.721 13.666,11.721 1.237,0 2.271,-0.358 2.297,-0.795 0.025,-0.437 -5.037,-6.119 -11.25,-12.627 -10.283,-10.77 -11.514,-11.751 -13.713,-10.926 m 297.723,34.598 c -2.364,2.752 -2.807,4.952 -1.66,8.243 2.722,7.808 12.853,5.596 12.853,-2.807 0,-6.016 -7.547,-9.681 -11.193,-5.436 m -263.462,31.061 c -1.047,1.684 0.844,3.042 20.318,14.589 17.362,10.296 21.746,12.505 22.905,11.544 0.787,-0.654 1.432,-1.702 1.432,-2.33 0,-0.996 -39.547,-24.667 -42.413,-25.387 -0.598,-0.15 -1.607,0.563 -2.242,1.584 m -67.636,42.449 -35.791,33.24 4.079,3.821 c 2.242,2.101 4.458,3.676 4.922,3.5 1.456,-0.553 71.081,-66.922 71.081,-67.757 0,-0.745 -7.091,-6.075 -8.054,-6.054 -0.245,0.005 -16.552,14.968 -36.237,33.25 m -131.468,-24.265 c -12.545,7.648 -7.329,26.988 7.283,27.001 3.508,0.004 5.66,1.211 16.769,9.409 l 12.745,9.406 -42.769,35.245 c -23.523,19.384 -43.328,35.679 -44.012,36.211 -0.684,0.531 -8.683,1.431 -17.776,2 -15.96,0.997 -16.61,0.963 -18.757,-0.992 -7.529,-6.855 -18.512005,-5.297 -23.458005,3.329 -8.974,15.654 12.283005,30.087 24.056005,16.333 l 3.438,-4.017 9.87,-0.847 c 5.429,-0.466 10.058,-0.673 10.287,-0.46 0.403,0.374 -8.093,17.231 -39.757005,78.887 -12.758,24.842 -15.236,29.039 -17.277,29.27 -6.787,0.768 -8.795,1.515 -11.696,4.352 -8.57,8.378 -4.952,21.471 6.915,25.027 5.071,1.519 11.911,-0.956 15.135,-5.477 2.235,-3.133 2.589,-6.993 1.573,-17.172 -0.221,-2.207 2.068,-7.493 8.660005,-20 4.928,-9.35 9.071,-16.325 9.207,-15.5 0.136,0.825 0.969,21.402 1.851,45.727 l 1.604,44.227 -3.975,3.782 c -8.671,8.248 -5.819,21.58 5.407,25.285 4.853,1.602 9.795,0.481 13.945,-3.163 6.882,-6.043 6.909,-15.437 0.064,-22.095 l -3.355,-3.263 -0.618,-40.5 c -0.34,-22.275 -0.869,-48.825 -1.174,-59 l -0.556,-18.5 16.315,-27.567 16.315,-27.566 13.5,-11.963 c 46.042,-40.801 56.998,-50.35 56.985,-49.668 -0.008,0.42 -3.383,7.048 -7.5,14.728 -4.117,7.68 -7.485,14.894 -7.485,16.03 0,1.137 6.075,39.548 13.5,85.358 7.425,45.81 13.5,84.148 13.5,85.196 0,1.047 -0.898,3.377 -1.996,5.178 -4.718,7.738 -1.383,17.599 7.147,21.135 15.28,6.332 27.812,-13.284 15.432,-24.154 -1.864,-1.637 -3.887,-3.142 -4.495,-3.344 -0.869,-0.29 -30.088,-167.734 -30.088,-172.42 0,-0.6 6.737,-8.933 14.971,-18.517 l 14.971,-17.426 0.029,-10.024 0.029,-10.025 -15.878,-12.294 c -15.046,-11.651 -15.905,-12.502 -16.409,-16.264 -0.293,-2.183 -1.273,-5.099 -2.177,-6.479 -4.08,-6.226 -13.845,-8.352 -20.295,-4.419 m 3.394,7.078 c -5.081,3.996 -2.366,12.927 3.931,12.927 8.268,0 11.166,-10.523 3.819,-13.87 -3.471,-1.582 -4.736,-1.428 -7.75,0.943 m 246.469,31.177 c -3.361,8.388 -6.109,15.712 -6.107,16.276 0,0.564 6.528,3.183 14.503,5.82 10.986,3.633 14.502,5.202 14.51,6.475 0.014,2.265 -12.924,109.07 -13.564,111.972 -0.278,1.261 -1.28,2.565 -2.226,2.898 -6.787,2.387 -12.026,10.955 -10.909,17.841 0.85,5.232 4.373,10.266 8.75,12.499 10.442,5.327 22.748,-0.919 24.628,-12.499 0.721,-4.446 -1.958,-11.812 -5.233,-14.388 l -2.386,-1.877 6.947,-41.383 c 3.821,-22.761 7.174,-42.284 7.452,-43.384 0.29,-1.15 4.166,-4.289 9.117,-7.385 l 8.611,-5.385 3.336,3.385 c 1.834,1.862 14.288,15.636 27.674,30.61 l 24.338,27.225 -2.204,32.275 c -1.213,17.751 -2.247,33.175 -2.299,34.275 -0.061,1.313 -1.462,2.631 -4.076,3.836 -8.108,3.739 -11.341,14.666 -6.754,22.827 6.046,10.757 21.558,11.238 28.535,0.885 3.268,-4.85 3.153,-13.443 -0.247,-18.453 -1.375,-2.026 -2.5,-4.184 -2.5,-4.796 0,-2.973 12.504,-52.686 13.09,-52.042 2.382,2.621 38.91,80.003 38.91,82.43 0,0.398 -1.093,2.334 -2.428,4.302 -3.239,4.773 -3.929,8.47 -2.543,13.617 2.33,8.656 11.573,14.155 19.984,11.89 11.753,-3.164 16.381,-15.757 9.573,-26.046 -1.99,-3.006 -2.586,-5.168 -2.586,-9.376 0,-5.349 -0.526,-6.354 -24.196,-46.271 l -24.196,-40.803 -22.671,-28 c -12.469,-15.4 -22.561,-28.132 -22.428,-28.293 0.324,-0.391 55.679,2.758 57.115,3.249 0.618,0.211 1.423,1.982 1.79,3.935 1.947,10.381 15.913,16.233 24.664,10.335 10.757,-7.249 10.757,-21.203 0,-28.452 -5.354,-3.609 -13.755,-2.814 -20.277,1.919 -1.408,1.021 -5.111,0.172 -21.567,-4.947 l -19.867,-6.18 -17.433,5.515 c -10.115,3.199 -17.951,5.179 -18.666,4.717 -0.677,-0.439 -8.469,-10.473 -17.314,-22.298 l -16.082,-21.5 21.814,-0.644 c 53.754,-1.587 74.314,-1.065 74.314,1.887 0,3.029 4.353,9.087 8.004,11.139 14.111,7.931 29.87,-6.28 23.602,-21.282 -3.994,-9.561 -17.957,-12.619 -25.877,-5.668 l -3.229,2.833 -11.883,-4.366 -11.882,-4.367 -50.618,1.956 -50.617,1.955 -10,-2.954 c -5.5,-1.625 -10.064,-2.962 -10.143,-2.972 -0.078,-0.009 -2.892,6.845 -6.253,15.233 m 162.152,-1.715 c -3.313,1.392 -5.774,6.257 -4.769,9.425 1.924,6.062 9.619,8.025 14.058,3.585 3.003,-3.002 3.194,-7.336 0.478,-10.789 -2.41,-3.064 -5.884,-3.854 -9.767,-2.221 m 340.768,47.65 c -5.249,3.567 -8.024,8.308 -8.025,13.713 0,5.638 -31.557,127.251 -33.29,128.301 -20.367,12.329 -86.286,51.416 -86.482,51.279 -0.151,-0.105 1.092,-27.889 2.761,-61.741 2.303,-46.699 3.394,-62.408 4.524,-65.111 2.077,-4.972 1.861,-8.607 -0.815,-13.666 -2.699,-5.104 -9.023,-8.96 -14.697,-8.96 -10.991,0 -19.689,11.797 -15.95,21.631 0.777,2.043 -0.023,19.809 -3.076,68.315 -2.269,36.055 -4.461,66.202 -4.871,66.994 -0.519,1.003 -13.777,3.914 -43.661,9.588 l -42.915,8.148 3.986,2.514 c 15.058,9.493 27.55,16.806 28.67,16.784 0.724,-0.015 30.075,-6.469 65.224,-14.344 l 63.908,-14.317 38.592,16.913 c 38.074,16.686 38.628,16.971 41.188,21.156 3.409,5.575 8.42,7.989 15.385,7.411 6.481,-0.537 11.1,-3.656 13.615,-9.194 2.466,-5.432 2.377,-9.241 -0.345,-14.633 -3.789,-7.507 -12.747,-10.844 -21.179,-7.89 -2.883,1.01 -5.086,0.03 -36.071,-16.051 -18.15,-9.421 -33.36,-17.487 -33.799,-17.926 -0.44,-0.438 21.229,-14.562 48.152,-31.385 l 48.951,-30.588 26.50497,-5.016 26.505,-5.015 23.68,10.329 c 20.226,8.823 24.129,10.876 26.768,14.077 7.246,8.791 20.352,8.467 26.853,-0.663 3.452,-4.848 3.783,-13.277 0.7,-17.814 -4.181,-6.153 -8.219,-8.123 -16.269,-7.938 -6.447,0.149 -10.192,-0.834 -44.046,-11.563 -20.35,-6.449 -37.357,-12.06 -37.793,-12.467 -1.058,-0.99 53.327,-51.373 58.591,-54.279 6.04,-3.335 8.702,-7.829 8.702,-14.693 0,-4.364 -0.565,-6.451 -2.529,-9.341 -5.727,-8.428 -18.341,-9.967 -24.599,-3.002 -5.157,5.741 -105.28897,106.175 -105.57297,105.892 -0.163,-0.164 6.003,-22.227 13.702,-49.031 8.242,-28.693 13.999,-50.496 13.999,-53.02 0,-8.297 -6.577,-14.715 -15.737,-15.356 -4.819,-0.337 -6.332,-0.016 -9.239,1.959 m 2.431,8.27 c -4.476,4.475 -2.529,11.635 3.767,13.854 2.852,1.005 7.735,-1.326 9.36,-4.467 4.21,-8.142 -6.625,-15.89 -13.127,-9.387 m -332.955,2.7 c -3.247,1.776 -4.5,3.993 -4.5,7.964 0,7.071 8.497,10.475 13.545,5.426 4.047,-4.046 3.24,-10.57 -1.617,-13.082 -3.337,-1.726 -4.731,-1.784 -7.428,-0.308 m 438.95497,4.3 c -5.174,5.173 -1.601,14.545 5.545,14.545 4.355,0 8,-3.873 8,-8.5 0,-4.627 -3.645,-8.5 -8,-8.5 -1.948,0 -3.998,0.907 -5.545,2.455 m -960.95497,22.7 c -3.048005,1.667 -4.500005,3.938 -4.500005,7.036 0,6.514 8.842005,9.369 12.927005,4.174 3.366,-4.278 2.37,-8.549 -2.611,-11.202 -2.647,-1.41 -3.252,-1.41 -5.816,-0.008 m 710.423,16.768 c -1.762,1.762 -2.923,3.977 -2.923,5.577 0,3.177 4.932,8.5 7.876,8.5 5.067,0 9.124,-4.057 9.124,-9.124 0,-2.944 -5.323,-7.876 -8.5,-7.876 -1.6,0 -3.815,1.161 -5.577,2.923 m -352.883,52.883 c -3.849,3.849 -4.069,8.256 -0.585,11.739 3.483,3.484 7.89,3.264 11.739,-0.585 2.555,-2.556 2.938,-3.551 2.399,-6.247 -0.815,-4.073 -3.233,-6.491 -7.306,-7.306 -2.696,-0.539 -3.691,-0.156 -6.247,2.399 m 636.31597,17.564 c -7.262,6.246 0.53,17.957 8.96,13.467 3.205,-1.708 4.62,-3.955 4.62,-7.337 0,-3.382 -1.415,-5.629 -4.62,-7.337 -3.308,-1.762 -5.917,-1.41 -8.96,1.207 m -540.72097,16.703 c -1.948,1.532 -2.635,2.983 -2.635,5.565 0,4.71 1.364,6.945 5.016,8.218 5.898,2.056 10.897,-1.611 10.952,-8.033 0.038,-4.32 -3.531,-7.823 -7.968,-7.823 -1.502,0 -3.916,0.933 -5.365,2.073 m -476.741005,23.051 c -2.49,0.904 -4.894,4.485 -4.894,7.288 0,0.725 0.933,2.504 2.073,3.953 4.115,5.231 12.927,2.331 12.927,-4.254 0,-5.404 -4.981,-8.848 -10.106,-6.987 m 550.561005,7.331 c -5.173,5.172 -1.435,13.545 6.045,13.545 5.325,0 8.936,-3.91 8.149,-8.823 -1.124,-7.027 -9.202,-9.715 -14.194,-4.722 m -382.967,20.558 c -2.461,2.719 -2.322,7.597 0.29,10.209 2.612,2.612 7.49,2.751 10.209,0.29 2.621,-2.372 2.726,-8.557 0.184,-10.857 -2.575,-2.33 -8.427,-2.134 -10.683,0.358 m -129.488,34.987 c -1.203,1.203 -2,3.333 -2,5.345 0,6.882 8.115,9.547 12.731,4.181 2.637,-3.066 2.473,-6.517 -0.464,-9.776 -2.16,-2.397 -7.756,-2.261 -10.267,0.25 m 842.04,4.806 c -5.695,5.695 -2.507,14.194 5.326,14.194 4.777,0 9.092,-4.962 8.198,-9.429 -0.787,-3.937 -3.246,-6.357 -7.277,-7.164 -2.696,-0.539 -3.691,-0.156 -6.247,2.399 m -479.34,113.617 c -37.788,34.801 -44.307,40.413 -47.5,40.886 -2.035,0.302 -18.876,2.217 -37.424,4.254 l -33.724,3.706 -5.126,-2.206 c -6.457,-2.777 -11.671,-2.104 -16.493,2.13 -5.787,5.081 -6.743,13.687 -2.23,20.072 2.746,3.885 6.866,5.735 12.77,5.735 4.481,0 5.564,-0.447 9.299,-3.839 l 4.228,-3.84 34,-1.569 c 18.7,-0.863 34.147,-1.425 34.327,-1.25 0.18,0.176 -10.62,20.908 -24,46.073 l -24.327,45.753 -17.35,15.086 c -9.543,8.297 -18.543,15.577 -20,16.177 -1.458,0.6 -12.019,2.126 -23.471,3.393 -18.105,2.001 -21.52,2.134 -26.178,1.016 -7.858,-1.885 -12.266,-0.852 -16.751,3.927 -3.642,3.88 -4.283,5.941 -3.757,12.073 0.98,11.403 15.099,16.842 24.087,9.279 2.565,-2.158 8.522,-3.761 38.658,-10.401 19.593,-4.317 35.751,-7.722 35.907,-7.567 0.714,0.715 -19.837,64.93798 -22.169,69.28098 -2.12,3.946 -2.525,5.757 -2.064,9.243 1.074,8.128 6.938,13.17 15.306,13.161 6.837,-0.01 14.27,-6.772 14.278,-12.996 0,-3.631 33.384,-127.01498 34.14,-126.19198 0.349,0.38 5.447,20.245 11.328,44.144 5.882,23.898 11.326,44.675 12.1,46.17098 3.033,5.866 11.291,9.07 17.821,6.915 4.701,-1.552 9.25,-6.917 10.093,-11.90598 0.538,-3.185 0.135,-5.244 -1.923,-9.83 -1.431,-3.191 -9.277,-30.026 -17.435,-59.634 l -14.833,-53.832 21.925,-39.168 c 12.058,-21.542 22.24,-39.492 22.626,-39.888 1.119,-1.148 50.807,96.085 51.639,101.051 2.014,12.017 16.186,17.068 24.881,8.867 6.892,-6.499 6.677,-16.094 -0.508,-22.684 -0.908,-0.833 -13.593,-25.715 -28.19,-55.295 l -26.54,-53.78 29.891,-25.72 29.89,-25.719 -6.201,-0.633 c -3.41,-0.348 -10.925,-0.666 -16.7,-0.707 l -10.5,-0.073 -43.8,40.336 m -134.964,53.827 c -5.606,4.257 -2.669,13.686 4.264,13.686 6.986,0 10.285,-9.522 4.663,-13.459 -2.577,-1.805 -6.71,-1.91 -8.927,-0.227 m 194.493,72.419 c -2.157,0.868 -4.318,6.127 -3.636,8.846 2.092,8.335 14.407,6.675 14.407,-1.942 0,-5.284 -5.706,-8.941 -10.771,-6.904 m -253.594,73.404 c -3.302,2.597 -3.613,7.949 -0.635,10.927 2.978,2.978 8.33,2.667 10.927,-0.635 2.365,-3.006 2.524,-4.281 0.963,-7.708 -1.084,-2.377 -4.658,-4.657 -7.302,-4.657 -0.725,0 -2.504,0.933 -3.953,2.073 m 160.754,29.269 c -5.445,4.684 -2.541,12.65798 4.611,12.65798 4.524,0 7.333,-2.74698 7.333,-7.17098 0,-3.497 -4.057,-7.829 -7.333,-7.829 -1.039,0 -3.114,1.054 -4.611,2.342 m -85.754,41.73098 c -3.302,2.597 -3.613,7.949 -0.635,10.927 2.978,2.978 8.33,2.667 10.927,-0.635 2.365,-3.006 2.524,-4.281 0.963,-7.708 -1.084,-2.377 -4.658,-4.657 -7.302,-4.657 -0.725,0 -2.504,0.933 -3.953,2.073 m -281.635005,386.219 v 22.292 l 32.750005,4.315 c 18.013,2.373 32.803,4.379 32.868,4.458 0.316,0.383 -45.301005,362.66 -45.718005,363.077 -0.411,0.41 -48.156,6.566 -50.93,6.566 -0.596,0 -0.97,8.093 -0.97,21 v 21 h 91.000005 91 v -21 c 0,-16.12 -0.291,-21.006 -1.25,-21.026 -3.84,-0.08 -61.807,-6.697 -62.212,-7.102 -0.266,-0.267 4.656,-60.31 10.938,-133.429 9.48,-110.33 18.294,-224.235 18.592,-240.28 0.038,-2.06 6.184,19.533 14.042,49.337 10.41,39.483 79.213,279.292 100.059,348.75 l 2.026,6.75 h 41.207 41.207 l 41.182,-155.75 c 34.084,-128.904 42.941,-163.804 51.388,-202.474 5.613,-25.699 10.373,-46.557 10.578,-46.352 1.07,1.07 37.577,372.575 36.699,373.454 -0.457,0.456 -47.486,6.96 -51.206,7.081 -0.959,0.032 -1.25,4.929 -1.25,21.041 v 21 h 105.5 105.5 v -21 c 0,-11.55 -0.338,-21.014 -0.75,-21.031 -2.766,-0.112 -46.325,-6.711 -46.686,-7.072 -0.39,-0.39 -50.449,-362.149 -50.168,-362.544 0.057,-0.08 15.292,-2.076 33.854,-4.435 l 33.75,-4.289 v -22.315 -22.314 h -105.757 -105.757 l -33.27,132.75 c -29.146,116.298 -33.956,136.59 -38.81,163.734 -3.047,17.041 -5.652,31.095 -5.788,31.231 -0.136,0.136 -3.483,-14.744 -7.438,-33.066 -3.955,-18.323 -21.106,-88.177 -38.114,-155.231 -17.008,-67.055 -31.911,-125.855 -33.118,-130.668 l -2.194,-8.75 H 184.77203 78.395025 v 22.292 m 1062.688975,1.458 c -0.237,0.412 -2.121,6.6 -4.187,13.75 -14.298,49.472 -26.744,74.907 -39.994,81.731 -3.392,1.748 -34.076,13.769 -35.144,13.769 -0.2,0 -0.364,8.325 -0.364,18.5 v 18.5 h 18.958 18.959 l 0.35,119.75 c 0.323,110.429 0.489,120.329 2.123,127.194 6.718,28.207 19.324,42.055 45.076,49.518 32.809,9.508 89.493,2.324 130.254,-16.508 9.121,-4.213 22.204,-11.953 24.131,-14.274 0.846,-1.019 -0.441,-5.995 -5.341,-20.651 -3.55,-10.619 -6.599,-19.452 -6.776,-19.628 -0.176,-0.176 -3.761,0.773 -7.967,2.108 -15.921,5.056 -27.16,6.786 -44.767,6.892 -20.643,0.124 -23.286,-0.808 -26.659,-9.401 -4.233,-10.782 -4.547,-18.477 -5.072,-124.25 l -0.5,-100.75 h 44.615 44.616 v -26.5 -26.5 h -44.848 -44.848 l -0.625,-13.25 c -0.344,-7.287 -1.119,-27.425 -1.722,-44.75 -0.603,-17.325 -1.299,-32.513 -1.546,-33.75 l -0.449,-2.25 h -28.922 c -15.907,0 -29.115,0.338 -29.351,0.75 m 562.811,85.372 c -51.25,4.847 -94.553,28.304 -123.466,66.878 -8.301,11.076 -20.403,34.775 -25.021,49 -3.95,12.167 -7.563,30.247 -9.092,45.5 -1.484,14.799 -0.659,47.717 1.566,62.5 6.144,40.809 21.327,73.749 44.99,97.604 10.751,10.838 20.085,17.64 33.38,24.324 38.781,19.499 97.758,22.574 143.143,7.463 19.575,-6.518 46.59,-21.71 59.25,-33.319 3.162,-2.9 5.75,-5.645 5.75,-6.101 0,-0.879 -15.862,-36.167 -16.58,-36.884 -0.232,-0.232 -2.559,0.799 -5.171,2.291 -13.683,7.816 -30.521,14.145 -46.988,17.66 -13.943,2.977 -39.427,3.807 -48.261,1.573 -31.575,-7.987 -51.46,-37.231 -59.193,-87.054 -2.964,-19.101 -3.196,-66.512 -0.431,-88.042 3.974,-30.935 11.27,-50.129 23.937,-62.968 11.613,-11.771 23.059,-16.228 39.187,-15.262 16.716,1.002 25.197,6.224 27.456,16.905 0.618,2.92 4.387,19.71 8.376,37.31 l 7.252,32 h 31.958 31.958 l 1.636,-43 c 0.901,-23.65 1.916,-49.114 2.257,-56.586 l 0.62,-13.585 -14.257,-3.842 c -28.049,-7.56 -36.117,-9.501 -47.707,-11.479 -22.142,-3.777 -46.129,-4.818 -66.549,-2.886 m -848.49997,0.475 c -36.823,4.299 -67.457,12.999 -96.5,27.406 -8.8,4.365 -20.153,10.628 -25.23,13.917 l -9.23,5.98 7.294,15.3 c 4.011,8.415 8.794,18.563 10.628,22.55 1.834,3.987 3.901,7.25 4.593,7.25 0.692,0 4.312,-1.37 8.044,-3.044 20.167,-9.049 49.806,-18.11 67.073,-20.507 15.928,-2.211 42.162,-2.206 52.828,0.01 27.822,5.778 37.5,20.657 37.5,57.651 v 13.89 l -6.75,0.01 c -18.874,0.028 -53.316,3.576 -73.25,7.547 -64.31,12.811 -105.357,39.951 -117.884,77.943 -7.906,23.978 -5.515,56.375 5.935,80.404 21.562,45.251 73.927,65.846 130.949,51.504 18.439,-4.638 41.039,-17.952 58.291,-34.34 l 7.406,-7.035 0.659,11.535 c 1.383,24.217 5.013,29.972 21.144,33.52 8.056,1.773 32.965,1.526 52.5,-0.519 15.85497,-1.66 47.81897,-6.339 49.22097,-7.205 0.428,-0.265 0.779,-9.455 0.779,-20.423 v -19.941 h -16 -16 l -0.016,-97.75 c -0.019,-116.358 -0.605,-126.695 -8.571,-151.065 -11.88597,-36.361 -34.94197,-54.324 -79.91297,-62.261 -9.595,-1.694 -17.011,-2.18 -37,-2.427 -13.75,-0.17 -26.575,-0.125 -28.5,0.1 m 530.99997,6.924 c -32.725,4.023 -59.612,7.351 -59.75,7.397 -0.138,0.045 -0.249,10.77 -0.248,23.832 l 10e-4,23.75 15.749,4.441 c 8.661,2.442 17.886,5.064 20.498,5.825 l 4.75,1.384 v 117.261 117.26 l -15.75,2.202 c -8.662,1.211 -17.213,2.461 -19,2.776 l -3.25,0.574 v 11.146 11.147 l -28.302,14.141 -28.302,14.14 -6.262,23.352 c -3.444,12.843 -8.773,32.689 -11.843,44.101 l -5.58,20.75 h -3.644 c -7.988,0 -16.189,6.805 -17.662,14.655 -0.805,4.293 1.681,11.159 5.381,14.859 9.586,9.585 26.93,8.486 32.948,-2.089 4.317,-7.587 1.896,-18.056 -5.245,-22.681 -1.905,-1.234 -3.47,-2.873 -3.477,-3.642 -0.01,-0.769 5.005,-20.157 11.137,-43.084 l 11.149,-41.686 24.357,-12.166 c 13.395,-6.691 24.538,-12.166 24.761,-12.166 0.224,0 0.623,2.813 0.888,6.25 0.441,5.73 -1.27,12.835 -20.555,85.384 l -21.036,79.133 -4.36,0.598 c -12.313,1.688 -19.579,11.262 -16.456,21.686 2.591,8.647 10.6,14.229 20.603,14.359 13.299,0.172 22.019,-10.059 18.522,-21.732 -1.188,-3.964 -6.99,-10.872 -9.934,-11.828 -1.126,-0.365 0.165,-6.337 6.354,-29.404 4.272,-15.92 7.868,-29.056 7.991,-29.191 0.123,-0.135 7.782,11.266 17.02,25.337 l 16.796,25.582 -11.423,42.663 -11.423,42.663 -4.452,0.552 c -8.402,1.043 -13.972,5.6 -15.986,13.079 -2.996,11.127 7.582,22.791 20.72,22.847 6.289,0.027 9.902,-1.241 13.654,-4.792 5.986,-5.663 7.323,-13.009 3.67,-20.168 -1.512,-2.964 -7.061,-8.399 -9.728,-9.53 -0.121,-0.051 4.968,-19.419 11.308,-43.04 6.34,-23.622 11.35,-43.848 11.133,-44.948 -0.217,-1.1 -8.869,-14.825 -19.227,-30.5 -10.358,-15.675 -18.788,-29.175 -18.734,-30 0.084,-1.275 22.289,-87.211 23.836,-92.25 0.463,-1.505 1.858,-1.75 9.97,-1.75 h 9.433 v 40.422 40.423 l -3.75,1.201 c -8.325,2.667 -13.25,8.951 -13.25,16.905 0,5.115 1.848,8.83 6.363,12.795 4.657,4.089 9.733,5.627 16.322,4.947 6.485,-0.669 10.55,-2.89 14.709,-8.036 2.666,-3.299 3.106,-4.654 3.106,-9.573 0,-8.686 -3.834,-13.81 -12.75,-17.039 l -2.75,-0.995 v -40.525 -40.525 h 23 23 l -0.01,65.75 -0.011,65.75 -5.743,2.671 c -7.318,3.404 -10.464,7.534 -11.041,14.496 -0.614,7.404 2.825,13.167 9.987,16.736 15.215,7.582 33.252,-3.615 30.391,-18.866 -0.91,-4.848 -6.604,-11.002 -12.137,-13.114 l -4.436,-1.695 v -29.942 -29.942 l 3.855,3.328 c 2.12,1.83 12.47,10.978 23,20.328 l 19.145,17 v 44.006 44.006 l -4.98,2.284 c -6.748,3.096 -10.244,7.859 -10.814,14.733 -1.714,20.667 30.465,27.033 39.009,7.717 3.955,-8.94 -0.655,-18.762 -10.754,-22.915 l -4.454,-1.831 -0.023,-45.5 -0.024,-45.5 -26.73,-23.523 -26.73,-23.523 -0.264,-31.227 -0.264,-31.227 h 15.63 15.631 l -0.596,6.25 c -0.327,3.438 -1.124,15.853 -1.771,27.589 l -1.176,21.339 32.166,32.178 32.166,32.178 -2.076,3.983 c -1.582,3.033 -1.988,5.331 -1.705,9.635 1.422,21.59 31.953,20.41 37.843,-1.462 1.886,-7.006 -0.948,-14.312 -7.407,-19.098 -3.657,-2.71 -12.667,-2.868 -17.644,-0.311 l -3.466,1.782 -31.27,-31.282 -31.269,-31.281 1.476,-23.5 c 0.812,-12.925 1.481,-24.512 1.486,-25.75 0.01,-2.047 0.485,-2.25 5.263,-2.25 h 5.253 l 58.848,58.854 58.848,58.854 -1.654,3.2 c -4.693,9.075 -1.914,19.386 6.412,23.789 7.81,4.13 17.019,2.258 23.739,-4.825 12.019,-12.667 5.616,-31.407 -10.695,-31.304 -3.313,0.021 -6.854,0.75 -8.896,1.832 l -3.392,1.798 -20.838,-20.819 c -11.46,-11.451 -20.509,-21.104 -20.107,-21.451 0.401,-0.347 14.004,-1.365 30.229,-2.262 l 29.5,-1.63 31.141,31.117 31.14,31.117 -1.868,4.115 c -4.769,10.501 0.237,21.693 10.997,24.591 14.783,3.98 30.11,-13.161 24.621,-27.535 -2.42,-6.335 -7.193,-9.717 -14.457,-10.242 -4.39,-0.318 -6.666,0.062 -9.727,1.624 l -3.997,2.039 -31.919,-31.931 -31.919,-31.931 -6.506,0.027 c -3.578,0.014 -19.781,0.898 -36.006,1.963 l -29.5,1.938 -31.498,-31.464 -31.498,-31.464 h 15.748 15.748 v -20.875 -20.875 l -2.75,-0.52 c -1.512,-0.286 -9.838,-1.568 -18.5,-2.85 l -15.75,-2.33 v -147.76 -147.76 l -9.742,-6.515 c -7.638,-5.107 -10.501,-6.493 -13.25,-6.412 -1.93,0.057 -30.283,3.395 -63.008,7.418 m 621.992,-6.092 c -21.501,2.735 -49.051,9.664 -68.023,17.108 -17.783,6.977 -51.938,25.367 -54.344,29.261 -0.338,0.547 4.171,11.133 10.021,23.523 l 10.637,22.529 5.608,-2.534 c 18.374,-8.3 47.311,-17.835 63.109,-20.794 19.979,-3.742 52.391,-3.713 65,0.058 8.794,2.63 16.246,6.878 20.876,11.901 8.06,8.745 10.878,18.918 11.803,42.615 l 0.609,15.596 -16.394,0.698 c -39.873,1.699 -75.043,7.687 -103.394,17.604 -12.478,4.365 -31.701,13.738 -41.113,20.046 -9.403,6.304 -23.47,20.141 -28.858,28.389 -17.187,26.308 -18.249,67.959 -2.554,100.071 13.578,27.778 37.813,46.161 70.025,53.116 12.474,2.693 39.957,2.521 53,-0.333 24.712,-5.406 46.818,-17.729 66.12,-36.858 l 7.62,-7.551 0.518,13.813 c 0.583,15.52 2.082,21.235 6.846,26.109 7.484,7.654 25.755,9.442 62.396,6.102 17.171,-1.564 47.134,-5.83 52.75,-7.509 1.591,-0.476 1.75,-2.339 1.75,-20.456 v -19.933 h -16.5 -16.5 v -102.256 c 0,-112.314 -0.172,-116.344 -5.956,-139.244 -10.361,-41.027 -35.978,-62.253 -84.544,-70.053 -13.765,-2.21 -56.307,-2.825 -70.508,-1.018 m 353.508,-0.382 c -42.284,2.793 -77.61,17.126 -99.164,40.233 -7.868,8.436 -11.448,13.677 -16.421,24.041 -13.631,28.407 -9.387,71.006 9.905,99.414 5.578,8.214 20.417,21.986 31.912,29.618 11.415,7.578 24.326,14.17 51.268,26.174 38.324,17.074 62.518,30.604 70.034,39.164 5.918,6.741 8.423,13.671 8.423,23.309 0,7.085 -0.439,9.444 -2.639,14.175 -7.598,16.342 -22.981,23.995 -48.318,24.039 -18.442,0.033 -37.922,-5.098 -47.786,-12.586 -4.694,-3.564 -4.79,-3.797 -15.219,-36.878 l -5.597,-17.75 h -29.949 -29.949 v 41.933 c 0,39.068 0.12,41.968 1.75,42.458 18.203,5.473 59.05,15.719 75.75,19.001 18.667,3.669 27.572,4.631 49,5.294 70.462,2.18 119.566,-17.361 142.443,-56.686 9.369,-16.104 12.452,-28.538 12.397,-50 -0.034,-13.361 -0.391,-16.822 -2.588,-25.078 -5.491,-20.629 -14.79,-33.726 -34.718,-48.896 -18.257,-13.898 -37.915,-24.769 -71.534,-39.558 -52.382,-23.043 -69.894,-34.588 -75.033,-49.468 -5.765,-16.692 -0.688,-33.349 12.917,-42.379 7.575,-5.028 15.142,-7.489 27.231,-8.854 12.545,-1.416 25.03,0.334 36.471,5.114 12.013,5.018 12.262,5.404 21.391,33.002 l 7.976,24.117 h 28.284 28.284 l -0.26,-42.652 -0.261,-42.652 -8,-1.72 c -4.4,-0.946 -15.65,-3.544 -25,-5.775 -38.4,-9.159 -70.359,-12.309 -103,-10.154 m -1475.29597,184.126 c -22,2.76 -40.85,10.603 -51.948,21.616 -11.777,11.685 -16.266,22.923 -16.239,40.643 0.021,13.444 1.854,22.658 6.418,32.269 6.338,13.346 15.855,20.991 29.789,23.931 15.828,3.339 35.082,-2.74 52.642,-16.62 l 5.134,-4.059 v -49.476 -49.477 l -9.25,0.129 c -5.088,0.071 -12.533,0.541 -16.546,1.044 m 1160.64097,-0.034 c -37.646,4.316 -63.248,23.604 -67.894,51.152 -2.372,14.06 0.433,32.939 6.652,44.772 9.478,18.037 27.804,26.668 47.976,22.595 9.501,-1.918 23.106,-8.458 32.671,-15.704 l 6.75,-5.113 v -49.421 -49.42 l -9.25,0.131 c -5.088,0.072 -12.695,0.526 -16.905,1.008 m 290.655,227.857 c -7.7,0.983 -20.863,2.58 -29.25,3.548 l -15.25,1.761 v 9.78 c 0,11.224 -1.312,9.941 12.75,12.464 l 9.25,1.659 v 100.777 100.777 l -8,1.299 -8,1.299 v 10.82 10.82 h 43 43 v -10.839 -10.839 l -8.5,-1.265 -8.5,-1.264 v -55.346 -55.345 l 3.25,-2.439 c 8.078,-6.062 20.424,-10.634 28.75,-10.646 10.552,-0.014 17.419,4.393 20.555,13.191 1.739,4.879 1.912,9.395 2.222,57.911 l 0.335,52.619 -8.056,1.253 -8.056,1.253 v 10.878 10.878 h 43.5 43.5 v -10.871 -10.872 l -9.439,-1.249 -9.439,-1.249 -0.392,-55.13 c -0.34,-47.756 -0.623,-56.132 -2.122,-62.629 -6.16,-26.712 -21.26,-37.046 -52.108,-35.664 -17.833,0.799 -33.768,6.108 -47.834,15.934 -3.391,2.37 -6.629,4.593 -7.196,4.942 -0.69,0.425 -0.629,-3.55 0.183,-12.039 0.667,-6.97 1.243,-28.065 1.28,-46.877 l 0.067,-34.204 -4.644,-3.546 c -5.353,-4.088 -5.102,-4.072 -24.856,-1.55 m -602.918,29.254 c -0.606,7.468 -4.582,81.739 -4.582,85.592 0,2.114 0.302,2.158 14.929,2.158 h 14.929 l 1.071,-5.25 c 0.589,-2.887 3.548,-18.489 6.575,-34.671 3.028,-16.182 5.615,-29.509 5.75,-29.616 0.135,-0.108 8.684,-0.506 18.996,-0.885 l 18.75,-0.69 v 91.942 91.943 l -4.25,0.574 c -2.338,0.316 -11.113,1.123 -19.5,1.792 l -15.25,1.218 v 10.822 10.821 h 69.034 69.034 l -0.284,-10.75 -0.284,-10.75 -15.5,-1.244 c -8.525,-0.685 -18.312,-1.508 -21.75,-1.83 l -6.25,-0.585 v -92.021 -92.021 l 18.25,0.709 c 10.037,0.39 18.528,0.998 18.868,1.35 0.34,0.353 3.183,13.917 6.318,30.142 3.135,16.225 6.157,31.637 6.715,34.25 l 1.015,4.75 h 14.429 14.429 l -0.483,-3.75 c -0.265,-2.062 -1.254,-23.437 -2.197,-47.5 l -1.714,-43.75 h -103.23 -103.229 l -0.589,7.25 m 298.918,47.358 c -32.01,4.689 -54.462,21.984 -65.441,50.408 -5.068,13.12 -6.536,22.527 -6.472,41.484 0.087,25.936 4.435,42.394 15.614,59.109 13.102,19.589 32.778,29.021 62.799,30.104 21.301,0.768 34.977,-2.23 54.5,-11.947 8.351,-4.157 18.5,-11.291 18.5,-13.006 0,-0.854 -7.759,-18.784 -8.449,-19.525 -0.136,-0.145 -2.334,0.902 -4.885,2.328 -7.389,4.13 -21.155,8.377 -31.306,9.659 -26.498,3.347 -43.873,-8.246 -50.309,-33.568 -1,-3.935 -2.14,-9.966 -2.533,-13.404 l -0.714,-6.25 h 48.973 48.973 l 0.659,-3.25 c 0.362,-1.787 1.076,-8.668 1.586,-15.29 2.112,-27.423 -3.088,-45.76 -16.892,-59.563 -11.953,-11.954 -25.48,-16.846 -48.103,-17.399 -7.425,-0.181 -14.85,-0.132 -16.5,0.11 m 172.263,0.971 c -46.682,8.441 -74.701,47.478 -71.349,99.402 1.725,26.705 9.572,46.261 24.494,61.037 8.607,8.524 17.596,13.555 30.65,17.157 10.964,3.025 39.265,3.296 49.942,0.477 13.605,-3.592 39.526,-18.024 39.489,-21.987 -0.01,-1.136 -7.301,-17.31 -8.214,-18.224 -0.253,-0.252 -4.243,1.298 -8.867,3.444 -14.954,6.943 -33.737,9.325 -44.731,5.674 -11.045,-3.669 -20,-15.84 -24.414,-33.185 -2.03,-7.974 -2.255,-11.207 -2.221,-31.874 0.029,-17.954 0.411,-24.645 1.74,-30.5 2.308,-10.164 6.879,-19.126 11.983,-23.495 7.65,-6.548 19.91,-8.118 27.475,-3.517 3.212,1.953 3.089,1.556 10.04,32.512 l 1.796,8 16.076,0.274 16.077,0.274 0.635,-14.524 c 0.35,-7.988 0.914,-20.936 1.253,-28.774 l 0.617,-14.25 -14.867,-3.771 c -8.177,-2.074 -18.017,-4.203 -21.867,-4.73 -9.824,-1.346 -26.592,-1.074 -35.737,0.58 m -170.924,21.939 c -6.575,2.103 -13.19,9.641 -15.759,17.957 -2.317,7.504 -4.08,19.425 -4.08,27.597 v 5.928 h 25 25 l -0.017,-12.75 c -0.037,-27.161 -5.924,-38.421 -20.801,-39.792 -2.631,-0.242 -6.724,0.222 -9.343,1.06"
     stroke="none"
     fill="#148b33"
     fill-rule="evenodd"
     id="path2" />
  <rect
     style="fill:url(#linearGradient7);stroke-width:1.16451"
     id="rect2"
     width="160.81865"
     height="93.131439"
     x="-1366.705"
     y="-71.668541"
     transform="rotate(-135.76358)" />
</svg>
